<?xml version="1.0" standalone="no"?><!DOCTYPE svg PUBLIC "-//W3C//DTD SVG 1.1//EN" "http://www.w3.org/Graphics/SVG/1.1/DTD/svg11.dtd"><svg t="1691118535277" class="icon" viewBox="0 0 1024 1024" version="1.1" xmlns="http://www.w3.org/2000/svg" p-id="16036" xmlns:xlink="http://www.w3.org/1999/xlink" width="200" height="200"><path d="M789.76 171.52l-43.52-1.28-148.48 66.56c-30.72-2.56-64-3.84-97.28-3.84-243.2-1.28-440.32 61.44-440.32 138.24v-8.96c0 20.48 0 58.88 12.8 106.24L0 500.48v26.88l24.32 2.56 765.44-317.44v-40.96zM170.24 426.24c-52.48-17.92-79.36-38.4-79.36-55.04 0-37.12 144.64-97.28 410.88-97.28h11.52L170.24 426.24z m771.84-64c-1.28-8.96-6.4-17.92-14.08-26.88l-35.84 10.24c12.8 8.96 19.2 17.92 19.2 25.6 0 37.12-144.64 97.28-410.88 97.28h-28.16l-204.8 60.16c5.12 33.28 29.44 147.2 145.92 226.56 0 0-96-17.92-202.24-139.52-14.08-15.36-34.56-37.12-42.24-56.32l-48.64 12.8c37.12 56.32 94.72 116.48 186.88 174.08v30.72c0 21.76-6.4 34.56 39.68 53.76 42.24 17.92 119.04 23.04 149.76 24.32h7.68c30.72-1.28 107.52-6.4 149.76-24.32 46.08-20.48 39.68-33.28 39.68-53.76v-30.72C917.76 608 940.8 448 942.08 380.16c0-2.56 1.28-6.4 1.28-8.96-1.28-2.56-1.28-6.4-1.28-8.96z m-441.6 148.48h-12.8 12.8zM985.6 240.64l-139.52 43.52c-29.44-11.52-66.56-21.76-106.24-30.72l-69.12 28.16c44.8 5.12 83.2 12.8 115.2 20.48L51.2 531.2l1.28 29.44 26.88 3.84 943.36-277.76 1.28-39.68-38.4-6.4z" p-id="16037" fill="#836A40"></path></svg>