<?xml version="1.0" standalone="no"?><!DOCTYPE svg PUBLIC "-//W3C//DTD SVG 1.1//EN" "http://www.w3.org/Graphics/SVG/1.1/DTD/svg11.dtd"><svg t="1691125543601" class="icon" viewBox="0 0 1024 1024" version="1.1" xmlns="http://www.w3.org/2000/svg" p-id="80543" xmlns:xlink="http://www.w3.org/1999/xlink" width="200" height="200"><path d="M613.709473 811.013141c-12.021801-33.241079-58.07365-39.97955-90.190115-30.620391-2.101871-0.785899-4.140297-1.490957-6.742565-1.798972-2.804882-0.327458-5.661953 0.353041-8.438183 1.060145-5.647627-0.299829-11.141758 0.164752-16.510022 1.213641-3.985778-0.317225-7.537673 1.354857-12.156878 1.906419-5.91471 0.705058-10.468422 2.636037-15.099906 5.742794-2.698458 1.408069-5.13802 3.334955-7.900947 4.956895-5.736655 3.372817-10.728342 7.271614-15.503089 11.895935-2.745531 2.65855-5.843078 6.823406-7.729032 11.256368-0.436952 0.604774-0.903579 1.194198-1.305739 1.810229-3.990894 6.192026-5.625114 16.642029-2.651386 24.058952-0.810459 5.142114-1.154289 10.876722 0.955768 15.249309 0.410346 4.869914 1.852184 9.072633 4.91494 11.617595 1.443885 4.656043 3.146667 9.420557 5.709025 13.248745 2.803859 5.686513 6.510274 12.092409 11.952216 15.202237 0.158612 0.283456 0.375553 0.475837 0.571005 0.691755 0.544399 3.475148 6.997368 5.457292 8.167007 0.575098 0.3776-1.564635 2.547009-3.399423 3.477194-4.745071 1.073448-1.540076 1.910513-3.27458 2.745531-5.003967 0.308015 3.39533 1.100054 6.904247 2.65855 9.784854-0.442068 3.573385-0.695848 7.184633-0.448208 10.9504 0.187265 2.861164 0.540306 5.901407 0.854461 8.956999-0.029676 1.664919-0.086981 3.318582-0.029676 5.01727 0.092098 2.651386 0.274246 6.081509 0.835018 9.494235 0.138146 3.378957 1.088798 6.986111 1.642406 9.461489 0.89744 3.987824 2.631944 13.003152 6.789637 16.761756 0.162706 0.669242 0.462534 1.200338 0.835018 1.658779 0.502443 1.39272 5.903453 8.865925 6.151094 8.834202 0.026606-0.00921 0.045025-0.016373 0.071631-0.024559 0.154519 0.176009 6.551206-7.700379 7.65433-9.394974-0.254803 4.463662-0.171915 8.874111 1.088798 13.71128 1.122567 4.305049 3.091408 10.298554 6.405897 14.09502 0.823761 4.644787 0.884137 4.372587 3.25923 8.66638 0.283456 0.51063 0.642636 0.87902 1.031493 1.175779 1.14508 2.310625 5.519714 8.78099 5.519714 8.78099s7.327896-3.310396 9.223059-7.439436c1.381463-0.672312 2.803859-1.301645 3.966335-2.031263 1.338485-0.832971 2.588965-1.74576 3.802606-2.705622 0.128937-0.058328 0.260943-0.113587 0.390903-0.169869 1.283226 0.680499 3.024893 0.648776 4.073782-0.440022 1.288343-1.330298 2.446725-2.850931 3.541663-4.461615 1.258667-1.24741 2.426259-2.738367 3.455705-4.624321 4.133134-7.564279 6.39464-14.875802 6.944156-22.500457 0.370437-0.86367 0.693802-1.794879 1.046842-2.683109 1.642406 2.762927 8.800433 7.216355 9.423627 6.277984 2.363837-3.539616 3.223415-7.28287 3.510964-11.139711 0.228197-0.328481 0.436952-0.676405 0.549515-1.088798 2.099824-7.772011 3.212158-16.060791 4.263094-24.053835 0.497327-3.796466 1.481747-8.099469 2.330068-12.511965 1.171686-2.667759 2.267647-5.253654 3.074012-7.673773 0.906649-2.713808 2.600221-10.578939 3.419889-18.915815 1.497097 2.826372 1.410116 26.489304 5.716188 38.024012 0.698918 1.874697 3.359514 2.062985 3.983731 0 2.254344-7.41897 5.211698-14.535041 8.429996-21.487384 1.789763-0.334621 3.341095-1.696642 3.244904-3.908006-0.049119-1.151219 0.067538-2.337231 0.303922-3.535523 2.571568-5.270027 5.204535-10.479679 7.709589-15.688307 0.88823-1.518586 1.642406-3.066849 2.190899-4.640694 2.37714-5.158487 4.564969-10.347672 6.379291-15.616676 0.720408-1.627057 1.290389-3.448542 1.718131-5.430686C619.198487 844.160075 620.09388 828.672336 613.709473 811.013141zM482.486826 723.782428c-2.745531-1.082658-20.716834 2.084475-25.810852 2.849908-11.514241 1.721201-22.585391 4.075829-33.859155 6.736425-9.490142 2.235924-18.753109 4.823865-28.152177 7.322779-4.29277 1.14508-40.950667 9.763364-38.403658-0.453325 5.028527-20.152992 35.397185-36.642548 55.404867-43.039235 27.033703-8.639774 54.05001-12.291954 82.561367-12.169157C530.438954 685.187411 519.14984 738.236628 482.486826 723.782428zM552.051181 685.030845c28.511357-0.122797 55.527664 3.52836 82.561367 12.169157 20.007683 6.396687 50.373271 22.886243 55.404867 43.039235 2.547009 10.215666-34.110889 1.598404-38.405705 0.453325-9.395998-2.499937-18.658965-5.086855-28.152177-7.322779-11.271718-2.660596-22.341844-5.015224-33.859155-6.736425-5.094018-0.765433-23.065322-3.932566-25.810852-2.849908C527.129582 738.236628 515.837398 685.187411 552.051181 685.030845zM897.970632 249.499447c-3.981684-12.653181-6.010901-26.38902-13.46057-37.613666-8.309246-12.515035-11.364839-27.1565-18.866696-40.051181-9.588379-16.4783-24.924669-32.323173-41.984207-42.413995 2.50403 0.854461 5.021364 1.613754 7.521301 2.229784 11.396561 2.819209 20.969591 1.109264 32.28838-0.381693 1.720178-0.227174 1.850138-2.809999 0-2.785439-12.938684 0.162706-24.837688 1.200338-37.33942-3.5038-13.159718-4.956895-23.152303-13.580297-35.588543-19.554358-10.887978-5.229095-23.760147-9.293667-35.735899-10.671037-13.817704-1.589195-27.205619-5.008061-41.147142-4.452405-27.468608 1.098008-54.054103-2.76702-81.1973 3.560082-3.571339 0.832971-7.42204 1.740644-11.385305 2.787486 0.511653-5.986341 1.630127-11.974729 2.926656-17.588587 2.01796-8.733918 5.421476-17.105586 9.309016-25.14775 1.846044-3.811816 3.921309-7.513114 5.882987-11.264555 1.039679-1.984191 1.477654-4.611018 2.212388-6.823406 0.754177-0.178055 1.500167-0.403183 2.25639-0.559748 1.808182-0.3776 1.372254-3.207042-0.430812-3.178389-14.148231 0.232291-28.556383 8.280594-41.023322 14.367219-15.561417 7.600095-30.314423 15.82543-43.47721 27.196409-1.401929 1.214664-2.758834 2.471284-4.089132 3.756557 0.357134-5.682419 0.886183-11.347442 1.804089-16.984836 0.517793-3.187599 1.203408-6.347568 1.876744-9.503445-0.185218 0.861624 1.538029-7.550976 0.421602-6.718005 0.007163-0.004093 0.00921-0.013303 0.01535-0.01535 0.343831-0.124843 0.685615-0.281409 1.028423-0.388856 2.091638-0.669242 1.218758-3.628644-0.892323-3.245927-0.037862 0.00921-0.075725 0.020466-0.115634 0.029676-0.589424-0.39295-1.309832-0.457418-2.035356-0.091074-0.412392 0.202615-0.748037 0.499373-1.046842 0.831948-9.740852 2.662643-18.755156 8.970302-27.322275 13.974269-9.565866 5.591345-19.596314 13.139252-26.315342 22.016433-4.684696 6.192026-8.673543 13.934361-11.035334 22.103414-2.827395-6.245238-6.517437-11.796674-10.903328-17.146519-10.905374-13.293771-27.495214-20.266579-42.086537-28.496008-15.175631-8.55791-32.69668-14.278191-49.505507-18.628266-11.479449-2.975774-25.027-4.608971-36.058241 0.933255-1.218758 0.064468-2.430352 0.12075-3.662413 0.270153-1.838881 0.218988-2.636037 3.113921-0.477884 3.52222 6.088672 1.154289 12.244882 1.653663 18.378579 2.539846 6.008854 0.86367 11.595083 4.867868 16.9613 7.53051 11.291161 5.606695 17.581424 15.173584 26.738991 23.322172 8.981559 7.997138 11.588943 20.25123 15.166421 31.174 2.426259 7.416923 3.943822 14.361079 5.175883 21.612227-2.080382-2.339278-3.997034-4.860704-6.064113-7.421017-7.649214-9.472745-19.639293-14.887059-30.818913-18.703991-25.994024-8.872065-54.543244-12.577456-81.942267-10.231015-23.668049 2.031263-47.427172 4.977361-70.543659 10.402931-15.196097 3.569292-31.479969 2.216481-47.001477 2.450818-12.574387 0.194428-25.078165-0.515746-37.563524-1.927909-2.149966-0.245593-2.64934 3.479241-0.511653 3.773953 16.787338 2.307555 33.535791 3.423983 50.374294 3.801583-3.850701 1.441838-7.575536 3.02694-11.06808 4.697999-15.293311 7.303336-31.888268 16.304338-43.4987 28.886911-11.328 12.277628-23.190165 28.435633-31.089066 43.219337-3.796466 7.101745-8.894577 13.767562-13.041014 20.833491-3.526313 6.010901-8.220219 10.988262-12.791327 16.186657-2.037403 2.318812-4.1536 5.622044-6.680143 8.153704-1.524726 0.695848-3.057639 1.332345-4.597715 1.901303-0.934279 0.343831-1.27197 1.077541-1.204431 1.778506-1.24741 0.895393-0.35918 3.083222 1.413186 2.815115 1.908466-0.287549 3.622504-1.069355 5.209652-2.13871 20.446681-5.28333 35.202757-25.561166 55.565527-30.185486 3.421936-0.776689 6.765077-1.209548 10.079566-1.482771-2.330068 4.877077-5.9055 9.434883-8.465812 14.229073-10.149151 19.003819-19.811208 37.46017-26.107611 58.205657-2.847861 9.391904-6.906294 18.065448-6.852058 28.16855 0.049119 9.530051-1.99954 18.424628-0.680499 28.077475 1.358951 9.950629 0.88823 21.462824 4.982478 30.81482 2.412956 5.508457 3.927449 11.719926 5.225001 17.60189 0.957815 4.357238 3.850701 8.138354 5.468548 12.246929 0.017396 0.26299-0.011256 0.51984 0.01535 0.787946 0.069585 0.710175 0.361227 1.24127 0.759293 1.608637 0.011256 0.058328 0.035816 0.109494 0.047072 0.165776 0.230244 1.02433 1.415232 1.337461 2.260483 0.921999 0.529049-0.26606 1.060145-0.529049 1.587148-0.789992 0.408299-0.203638 0.408299-0.876973 0-1.080611-0.080841-0.039909-0.147356-0.169869-0.211824-0.323365 0.049119-0.169869 0.12075-0.310062 0.138146-0.502443 0.756223-7.807826 4.211928-13.902638 5.559623-21.442358 1.727341-9.662057-0.330528-17.730826 4.218068-25.471115-1.196245 7.751544-1.619894 14.956643-0.11768 23.176862 0.99363 5.430686 2.602268 10.731412 4.261047 15.986089 1.321088 4.185322 1.13587 8.679683 3.044336 12.697183 1.702782 3.580548 4.879124 8.104585 6.118348 11.789511 1.687432 5.022387 2.473331 10.992355 3.794419 16.197914 1.961678 7.736195 4.1536 15.72003 8.104585 22.835078 0.732687 1.319042 1.441838 2.611477 2.161223 3.917216 0.355087 5.501294 0.352017 11.037381 0.404206 16.564257 0.037862 4.227278-0.727571 8.584516-1.158383 12.885472-0.537236 2.477424-0.765433 5.068436-0.122797 8.204869 0.01535 0.067538 0.077771 0.096191 0.104377 0.156566 0.571005 1.51347 2.997264 1.961678 3.39226 0.024559 0.959861-4.733814 1.879813-9.767458 2.604314-14.892175 0.049119-0.12075 0.080841-0.245593 0.132006-0.366344 1.196245-2.919493 1.793856-5.870708 2.492774-8.80555 2.314719 3.868097 4.729721 7.700379 7.472182 11.468193 6.115278 8.401344 11.162224 18.636452 11.20418 29.227672 0.082888 19.973914-3.334955 40.658002-7.854898 60.049654-1.970888 8.458649-0.223081 19.605523 0.332575 28.227901 0.608867 9.44307 4.76042 19.125593 8.008394 27.906583 6.263657 16.947997 10.338463 36.376489 22.917966 50.049906 6.178723 6.720052 13.733792 17.422811 22.717398 18.621103 0.88823 0.115634 1.200338-0.952698 0.803295-1.598404 0.192382-0.319272 0.252757-0.740874 0.086981-1.24127-1.64957-4.962012-4.557806-7.987928-7.120165-12.341073-5.030573-8.541537-8.646937-17.027815-10.374278-26.877137-1.5104-8.633634-3.745301-16.479323-4.599761-25.27771-0.408299-4.211928-2.236947-8.072863-2.694365-12.300141-0.508583-4.754281 0.029676-9.892301 0.060375-14.679327 0.060375-8.813736 2.367931-18.116613 4.028757-26.750247 1.689479-8.785084 0.571005-17.815761 2.046612-26.66122 2.874467-17.217127 3.195785-35.021631 5.77861-52.324716 2.496867-16.746406 1.87265-33.56035 5.084808-50.28629 3.287883-17.11275-3.64297-34.798551 6.638187-50.520627 10.885931-16.646122 25.281803-29.546943 40.771589-41.280172-1.88186 7.392364-3.25616 14.760169-3.921309 22.469758-0.935302 10.822486-1.457188 21.559015-4.247744 32.107255-1.453095 5.481851-2.109034 13.458523-5.452175 18.08796-0.449231 0.621147-0.547469 1.483794-0.542352 2.38635-0.24764 0.980327-0.410346 1.966795-0.372483 2.930749 0.026606 0.669242 0.48607 1.064238 1.006933 1.220804 0.419556 0.89744 2.035356 0.857531 2.209318-0.211824 0.397043-2.415003 1.622964-4.635577 2.774183-6.895037 3.962242-5.213745 10.158361-9.682523 14.289448-13.68672 5.622044-5.450129 9.506515-12.07706 15.025205-17.556864 5.071506-5.033643 8.110725-13.325493 12.110829-19.264762 5.305843-7.881504 8.410554-17.434068 14.610766-24.810059 9.153474-10.880815 20.826328-19.313881 32.015158-28.0478 11.642155 9.67536 23.928992 18.46556 37.303604 26.241664 12.713556 7.388271 22.143323 20.152992 34.437323 28.42233 11.466146 7.713682 23.295566 14.268982 35.741016 20.351514 26.482141 12.945847 53.319369 22.388916 82.362846 27.806299 27.517727 5.13802 56.647161 11.287067 84.831061 10.094916 2.186805 0.529049 4.305049 0.716314 6.090718 0.166799 1.084705-0.332575 1.084705-1.861394 0-2.193968-0.162706-0.049119-0.321318-0.115634-0.485047-0.167822-0.202615-0.436952-0.544399-0.814552-1.184989-0.876973-0.678452-0.064468-1.350764-0.169869-2.02717-0.232291-29.857005-9.928117-58.32129-28.122501-83.286891-46.720068-7.745405-5.7694-15.97381-12.025894-23.25975-19.10615 2.243087 0.353041 4.472871 0.714268 6.662747 1.088798 21.295002 3.673669 43.785226 3.841491 65.348334 3.888564 11.43954 0.024559 22.904663 0.272199 34.341133 0.077771 10.825556-0.189312 20.907169-3.408633 31.606859-4.365424 1.052982-0.096191 1.088798-1.642406 0-1.664919l-0.051165 0c-0.047072-0.231267-0.180102-0.448208-0.448208-0.5137-12.044314-2.798742-23.915689-5.934153-35.276435-10.559497 20.949124 0.028653 41.767266-2.006703 61.727876-8.94165 22.246677-7.729032 43.865044-18.139126 63.770396-31.143301 0.084934 0.285502 0.183172 0.578168 0.258896 0.857531 2.225691 8.162914 6.671956 15.062044 10.822486 22.394033 3.76372 6.646374 4.459568 14.780635 9.247618 20.822235 6.010901 7.593955 11.766998 17.175171 16.601096 25.616424 4.926196 8.599865 7.318686 18.845207 9.573029 28.446889 2.335185 9.958816 4.370541 17.806551 4.372587 28.14706 0.002047 7.983835-3.000334 16.470113-7.114025 23.333428-1.497097 2.490727-0.665149 6.113231-2.050706 8.885368-2.1295 4.26514-3.613294 8.331759-4.830005 12.945847-4.786003 18.143219-3.076058 37.115316-3.070942 55.786561 0.00614 17.241686-3.348258 34.32783-3.218298 51.650357 0.053212 7.352455 1.100054 15.181771 1.617847 22.554692 0.74292 10.631128 1.046842 21.018709 1.046842 31.725562l0 31.06246c0 6.760984 1.267876 13.354146 1.816369 20.079314-1.443885 2.375094-1.24741 5.296633-1.216711 8.023744 0.013303 1.173732 0.978281 2.182712 2.169409 2.169409 0.230244-0.002047 0.455371-0.002047 0.683569-0.007163 1.487887-0.01535 2.156106-1.234107 2.055822-2.375094 1.090844-0.24764 2.031263-1.064238 2.035356-2.517333 0.00614-2.062985-0.013303-4.066619-0.060375-6.048763 0.903579-2.301416 1.794879-4.544503 2.171456-6.314823 1.264806-5.930059 1.493004-11.69332 3.892657-17.358343 2.033309-4.789073 2.740414-9.662057 5.222955-14.346753 3.276626-6.186909 9.378601-11.642155 13.186324-17.639752 12.130272-19.11536 14.96483-39.135322 15.061021-61.571311 0.073678-17.45658-0.64059-34.894741-0.997724-52.347229 0.559748 1.309832 1.189082 2.622734 1.939165 3.957125 4.675486 8.312316 6.336312 20.973684 15.815197 25.587771 1.011027 0.493234 1.982144-0.705058 1.203408-1.557472-3.475148-3.811816-5.602601-8.749268-7.717775-13.374612-2.591011-5.662977-5.218862-12.409634-7.452739-18.235316-4.825912-12.57541-2.114151-26.973328-2.097778-40.128953 0.017396-13.998829 7.40362-25.612331 13.193487-37.912471 2.575662-5.466502 6.598278-10.251481 8.432043-16.065907 1.864464-5.903453 3.799536-11.740392 5.736655-17.624403 1.74576-5.285377 1.332345-11.135618 2.713808-16.534582 1.341554-5.234211 2.783393-10.908444 4.517897-16.037255 3.815909-11.275811 1.935072-24.632004 1.99954-36.408211 0.053212-10.191106-0.026606-20.117177-0.566912-29.939893 4.886287 4.684696 9.577123 9.233292 13.561877 14.762215 1.602498 2.222621 1.689479 4.181229 2.877537 6.396687 0.978281 1.825578 2.431376 3.359514 3.667529 5.02034-0.562818 1.693572 0.971118 2.178619 2.186805 4.321422 0.912789 1.606591 2.975774 0.423649 2.756787-1.160429-0.01535-0.12075-0.056282-0.2415-0.073678-0.361227 0.370437-0.017396 0.727571-0.319272 0.620124-0.783853-3.381004-14.659885 0.497327-31.149441 2.125407-45.782719C907.632689 276.468682 902.586766 264.179798 897.970632 249.499447z" p-id="80544"></path></svg>