<?xml version="1.0" standalone="no"?><!DOCTYPE svg PUBLIC "-//W3C//DTD SVG 1.1//EN" "http://www.w3.org/Graphics/SVG/1.1/DTD/svg11.dtd"><svg t="1691126831860" class="icon" viewBox="0 0 1070 1024" version="1.1" xmlns="http://www.w3.org/2000/svg" p-id="91937" xmlns:xlink="http://www.w3.org/1999/xlink" width="208.984375" height="200"><path d="M1024 930.909091a46.545455 46.545455 0 0 1 0 93.090909H46.545455a46.545455 46.545455 0 0 1 0-93.090909h977.454545z m-325.818182-372.363636a139.636364 139.636364 0 1 1 0 279.272727 139.636364 139.636364 0 0 1 0-279.272727z m-418.909091 93.090909a93.090909 93.090909 0 1 1 0 186.181818 93.090909 93.090909 0 0 1 0-186.181818zM325.818182 186.181818a186.181818 186.181818 0 1 1 0 372.363637 186.181818 186.181818 0 0 1 0-372.363637z m512-186.181818a232.727273 232.727273 0 1 1 0 465.454545 232.727273 232.727273 0 0 1 0-465.454545z" p-id="91938"></path></svg>