<?xml version="1.0" standalone="no"?><!DOCTYPE svg PUBLIC "-//W3C//DTD SVG 1.1//EN" "http://www.w3.org/Graphics/SVG/1.1/DTD/svg11.dtd"><svg t="1691131314742" class="icon" viewBox="0 0 1024 1024" version="1.1" xmlns="http://www.w3.org/2000/svg" p-id="18298" xmlns:xlink="http://www.w3.org/1999/xlink" width="200" height="200"><path d="M720 448a144 144 0 1 1 0-288 144 144 0 0 1 0 288z m0 64a208 208 0 1 0 0-416 208 208 0 0 0 0 416zM272 640a112 112 0 1 1 0-224 112 112 0 0 1 0 224z m0 64a176 176 0 1 0 0-352 176 176 0 0 0 0 352zM656 864a80 80 0 1 1 0-160 80 80 0 0 1 0 160z m0 64a144 144 0 1 0 0-288 144 144 0 0 0 0 288z" fill="#999999" p-id="18299"></path></svg>