<?xml version="1.0" standalone="no"?><!DOCTYPE svg PUBLIC "-//W3C//DTD SVG 1.1//EN" "http://www.w3.org/Graphics/SVG/1.1/DTD/svg11.dtd"><svg t="1690900078080" class="icon" viewBox="0 0 1024 1024" version="1.1" xmlns="http://www.w3.org/2000/svg" p-id="21551" xmlns:xlink="http://www.w3.org/1999/xlink" width="200" height="200"><path d="M725.333333 85.333333h85.333334a170.666667 170.666667 0 0 1 170.666666 170.666667v597.333333a170.666667 170.666667 0 0 1-170.666666 170.666667H213.333333a170.666667 170.666667 0 0 1-170.666666-170.666667V256a170.666667 170.666667 0 0 1 170.666666-170.666667h85.333334V42.666667a42.666667 42.666667 0 0 1 85.333333 0v42.666666h256V42.666667a42.666667 42.666667 0 0 1 85.333333 0z m0 85.333334v42.666666a42.666667 42.666667 0 0 1-85.333333 0V170.666667H384v42.666666a42.666667 42.666667 0 0 1-85.333333 0V170.666667H213.333333a85.333333 85.333333 0 0 0-85.333333 85.333333v597.333333a85.333333 85.333333 0 0 0 85.333333 85.333334h597.333334a85.333333 85.333333 0 0 0 85.333333-85.333334V256a85.333333 85.333333 0 0 0-85.333333-85.333333z" fill="#8C93A4" p-id="21552"></path><path d="M42.666667 341.333333h938.666666v512a170.666667 170.666667 0 0 1-170.666666 170.666667H213.333333a170.666667 170.666667 0 0 1-170.666666-170.666667z m85.333333 85.333334v426.666666a85.333333 85.333333 0 0 0 85.333333 85.333334h597.333334a85.333333 85.333333 0 0 0 85.333333-85.333334V426.666667z" fill="#8C93A4" p-id="21553"></path><path d="M426.666667 512h213.333333a42.666667 42.666667 0 0 1 42.666667 42.666667 42.666667 42.666667 0 0 1-42.666667 42.666666H426.666667a42.666667 42.666667 0 0 1-42.666667-42.666666 42.666667 42.666667 0 0 1 42.666667-42.666667z" fill="#8C93A4" p-id="21554"></path><path d="M655.786667 533.333333a42.666667 42.666667 0 0 1 15.36 58.453334l-149.333334 258.56a42.666667 42.666667 0 0 1-58.026666 15.36 42.666667 42.666667 0 0 1-15.786667-58.026667l149.333333-258.56a42.666667 42.666667 0 0 1 58.453334-15.786667z" fill="#8C93A4" p-id="21555"></path></svg>