<?xml version="1.0" standalone="no"?><!DOCTYPE svg PUBLIC "-//W3C//DTD SVG 1.1//EN" "http://www.w3.org/Graphics/SVG/1.1/DTD/svg11.dtd"><svg t="1690939422737" class="icon" viewBox="0 0 1024 1024" version="1.1" xmlns="http://www.w3.org/2000/svg" p-id="59973" xmlns:xlink="http://www.w3.org/1999/xlink" width="200" height="200"><path d="M553.6 507.477333a32 32 0 0 0 44.8 45.653334l-44.8-45.653334z m105.130667-27.52l9.984 30.378667-9.984-30.378667z m-154.88-156.245333l-12.8 29.312 12.8-29.312zM672 128a32 32 0 0 0-64 0h64z m-64 42.666667a32 32 0 0 0 64 0h-64z m265.813333 67.413333a32 32 0 1 0-45.226666-45.226667l45.226666 45.226667z m-75.434666-15.061333a32 32 0 1 0 45.269333 45.226666l-45.226667-45.226666zM938.666667 458.666667a32 32 0 0 0 0-64v64z m-42.666667-64a32 32 0 0 0 0 64v-64z m-512 469.333333A266.666667 266.666667 0 0 1 117.333333 597.333333h-64A330.666667 330.666667 0 0 0 384 928v-64zM117.333333 597.333333A266.666667 266.666667 0 0 1 384 330.666667v-64A330.666667 330.666667 0 0 0 53.333333 597.333333h64z m789.333334 85.333334A181.333333 181.333333 0 0 1 725.333333 864v64A245.333333 245.333333 0 0 0 970.666667 682.666667h-64z m-308.266667-129.493334a181.333333 181.333333 0 0 1 70.314667-42.837333l-20.010667-60.8a245.333333 245.333333 0 0 0-95.104 57.941333l44.8 45.653334z m70.314667-42.837333A181.077333 181.077333 0 0 1 725.333333 501.333333v-64c-26.709333 0-52.48 4.266667-76.629333 12.202667l20.010667 60.8zM725.333333 864H384v64h341.333333v-64z m-85.333333-576A138.666667 138.666667 0 0 1 778.666667 426.666667h64A202.666667 202.666667 0 0 0 640 224v64zM778.666667 426.666667c0 16.170667-2.730667 31.573333-7.765334 45.909333l60.373334 21.205333A202.410667 202.410667 0 0 0 842.666667 426.666667h-64zM725.333333 501.333333c22.741333 0 44.416 4.181333 64.426667 11.733334l22.698667-59.818667A244.906667 244.906667 0 0 0 725.333333 437.333333v64z m64.426667 11.733334A181.418667 181.418667 0 0 1 906.666667 682.666667h64a245.418667 245.418667 0 0 0-158.208-229.418667l-22.741334 59.818667zM529.322667 343.04A138.410667 138.410667 0 0 1 640 288v-64c-66.005333 0-124.672 31.573333-161.621333 80.384l51.029333 38.656zM384 330.666667c38.144 0 74.325333 7.978667 107.008 22.357333l25.728-58.624A329.642667 329.642667 0 0 0 384 266.666667v64z m107.008 22.357333a267.733333 267.733333 0 0 1 138.282667 139.52l58.88-25.173333A331.733333 331.733333 0 0 0 516.693333 294.4l-25.728 58.624zM608 128v42.666667h64V128h-64z m220.586667 64.853333l-30.208 30.165334 45.269333 45.226666 30.165333-30.122666-45.226666-45.269334zM938.666667 394.666667h-42.666667v64h42.666667v-64z" p-id="59974" fill="#836A40"></path></svg>