<?xml version="1.0" standalone="no"?><!DOCTYPE svg PUBLIC "-//W3C//DTD SVG 1.1//EN" "http://www.w3.org/Graphics/SVG/1.1/DTD/svg11.dtd"><svg t="1690938704576" class="icon" viewBox="0 0 1024 1024" version="1.1" xmlns="http://www.w3.org/2000/svg" p-id="48291" xmlns:xlink="http://www.w3.org/1999/xlink" width="200" height="200"><path d="M40.448 934.473143l438.857143-877.714286a36.571429 36.571429 0 0 1 65.389714 0l438.857143 877.714286A36.571429 36.571429 0 0 1 950.857143 987.428571H73.142857a36.571429 36.571429 0 0 1-32.694857-52.955428zM475.428571 365.714286v292.571428a36.571429 36.571429 0 0 0 73.142858 0V365.714286a36.571429 36.571429 0 0 0-73.142858 0z m0 438.857143a36.571429 36.571429 0 1 0 73.142858 0 36.571429 36.571429 0 0 0-73.142858 0z" fill="#FF3B30" p-id="48292"></path></svg>