<?xml version="1.0" standalone="no"?><!DOCTYPE svg PUBLIC "-//W3C//DTD SVG 1.1//EN" "http://www.w3.org/Graphics/SVG/1.1/DTD/svg11.dtd"><svg t="1690938835458" class="icon" viewBox="0 0 1024 1024" version="1.1" xmlns="http://www.w3.org/2000/svg" p-id="55641" xmlns:xlink="http://www.w3.org/1999/xlink" width="200" height="200"><path d="M1002.9142 780.5L601.2142 65.6c-49.2-87.4-129.4-87.4-178.5 0L21.0142 780.5c-49.2 87.7-9 158.9 89.2 158.9h803.7c98.1 0 138.3-71.3 89-158.9zM456.8142 268.4c28.5-30.6 76.4-32.3 107-3.9 1.2 1.1 2.3 2.2 3.4 3.4 14.6 16.3 22.3 37.6 21.6 59.5 0 20.5-30 171.2-40 280.9h-72C468.0142 498.7 435.5142 348 435.5142 327.5c-0.7-21.7 6.9-42.9 21.4-59.1h-0.1z m109.4 521.3c-29.2 29.9-77.1 30.5-107 1.3l-1.3-1.3c-15-14.4-23.3-34.4-23-55.2-0.3-20.8 7.9-40.9 22.7-55.5 28.4-29.9 75.7-31.1 105.6-2.7l2.7 2.7c14.7 14.7 22.9 34.7 22.6 55.5 0.4 20.7-7.8 40.6-22.6 55.1l0.3 0.1z" fill="#FF5757" p-id="55642"></path></svg>