<?xml version="1.0" standalone="no"?><!DOCTYPE svg PUBLIC "-//W3C//DTD SVG 1.1//EN" "http://www.w3.org/Graphics/SVG/1.1/DTD/svg11.dtd"><svg t="1690960474680" class="icon" viewBox="0 0 1024 1024" version="1.1" xmlns="http://www.w3.org/2000/svg" p-id="3445" xmlns:xlink="http://www.w3.org/1999/xlink" width="200" height="200"><path d="M672 96a32 32 0 0 1 32 32v32h128a64 64 0 0 1 64 64v640a64 64 0 0 1-64 64H192a64 64 0 0 1-64-64V224a64 64 0 0 1 64-64h128v-32a32 32 0 0 1 64 0v32h256v-32a32 32 0 0 1 32-32z m160 320H192v448h640V416z m-283.904 92.48l0.16 3.52v224H576a32 32 0 0 1 3.744 63.776L576 800H448a32 32 0 0 1-3.744-63.776L448 736h36.256V576L467.2 588.8a32 32 0 0 1-42.208-3.328L422.4 582.4a32 32 0 0 1 3.328-42.208l3.072-2.592 68.256-51.2a32 32 0 0 1 51.04 22.08zM320 224H192v128h640V224H704v32a32 32 0 0 1-64 0v-32H384v32a32 32 0 0 1-64 0v-32z" p-id="3446" fill="#836A40"></path></svg>