<?xml version="1.0" standalone="no"?><!DOCTYPE svg PUBLIC "-//W3C//DTD SVG 1.1//EN" "http://www.w3.org/Graphics/SVG/1.1/DTD/svg11.dtd"><svg t="1691119320719" class="icon" viewBox="0 0 1024 1024" version="1.1" xmlns="http://www.w3.org/2000/svg" p-id="58670" xmlns:xlink="http://www.w3.org/1999/xlink" width="200" height="200"><path d="M952.3 437.9c-2.5-1.7-5.3-2.6-8.2-3.1-6.4-6-14.4-11.3-25.3-16 1.2-5.2 1.7-10.4 1.7-15.8 0-41.4-33.7-75.1-75-75.1-26.4 0-50 13.7-63.4 35-11.1-8.5-24.5-14-38.8-15.8l87.9-117.6c4.8-6.9 6.7-15.5 5.1-23.8-1.4-7.4-5.6-14.2-11.6-18.8l-23.5-25.4c-0.9-1-1.9-1.9-3.1-2.6-7-4.5-15.8-6.1-23.9-4.1-8.2 1.9-15.3 7.1-19.4 14.1L653.1 334l77.5-161c3.4-7.7 3.5-16.5 0.4-24.3-2.9-7.1-8.3-12.8-15.1-16.2l-28-20.3c-1.1-0.8-2.2-1.4-3.5-1.9-7.8-3.1-16.7-2.9-24.3 0.6-7.6 3.5-13.6 10-16.3 17.6l-73.5 197c-11.2-6.7-24.1-10.9-37.9-10.9-19.7 0-36 11.8-48.1 25.9-11.9-21-31.6-37.4-54.2-37.4-20.9 0-39.7 9.6-52 25-13.2-11.8-30.5-18.8-48.7-18.8-27.1 0-51.1 15.2-63.7 37.8-10.8-7.3-23.6-11.4-37-11.4-23.4 0-44.6 12.5-56.5 31.9-5.9-1.7-12-2.6-18.2-2.6-35.9 0-65.3 28.7-66.4 64.4-3.3 1.5-6.7 3.5-10 5.9-2.3 0.6-4.5 1.5-6.5 2.8-5.8 4-9.3 10.6-9.3 17.7 0 258 197.7 460.1 450 460.1s450-202.1 450-460.1c0.2-7.2-3.4-14-9.5-17.9zM780.4 186.5l21.8 23.6c0.3 0.4 0.6 0.4 1 0.4 0.6 0 1.3-0.3 2 0.2L699.4 353.6c-7.6 3.4-14.7 7.6-20.8 13.1-1.3-2.1-3.1-3.7-4.6-5.6l106.4-174.6z m-108.1-45.9l26 18.9c0.3 0.2 0.5 0.3 0.7 0.3 0.7 0 1.5-0.6 2.3-0.3l-84.1 176.9c-6.4 0.5-12.6 2-18.5 4.3l73.6-200.1zM154.1 397.1c6.3 0 12.3 1.8 17.9 5.2 4.3 2.7 9.6 3.2 14.3 1.3 4.7-1.8 8.3-5.8 9.7-10.7 4.1-14.8 17.6-25.2 32.8-25.2 12.4 0 23.8 6.9 29.9 18 3.4 6.3 10.5 9.5 17.5 8s12.1-7.4 12.7-14.5c1.6-21.3 19.5-37.9 40.6-37.9 15.8 0 30.3 9.4 37.1 23.8 2.9 6.3 9.6 9.9 16.3 9.2 6.8-0.8 12.5-5.8 14-12.5 3.5-15.5 17.5-26.8 33.3-26.8 15.7 0 32 24.6 33.8 44 0.7 7.3 6.3 13.2 13.6 14.3 7.3 1.1 14.4-2.9 17.2-9.6 7.7-18.3 23.9-37.2 37.7-37.2 10.5 0 20 4.2 27.3 10.7-1.1 13.3 6.3 26.2 19.3 31.3l13.2 5.2c3.8 1.5 7.7 2.2 11.6 2.2 8 0 15.5-3.3 21.2-8.7-0.5 10.7 4.1 21.3 13.7 27.6l11.9 7.7c5.3 3.4 11.1 5 17 5 9.7 0 19.1-4.5 25-12.8l25.7-34.4c4.6-1.4 9.4-2.3 14.4-2.3 17.2 0 32.9 8.7 41.1 22.6 3.4 5.8 10.1 8.9 16.7 7.7 6.6-1.2 11.8-6.4 13-13.1 3.6-20.6 21.3-35.6 42.1-35.6 23.6 0 42.9 19.3 42.9 42.9 0 6.2-1.5 12.3-4.3 18.4-2 4.1-2.1 9-0.3 13.2 1.8 4.2 5.3 7.5 9.7 9 4 1.3 7.4 2.6 10.4 3.9-97.1 39.3-196.6 62.8-298.1 71 15.8-21.8 21.3-42.1 16.1-60.5-3.9-14-16.3-23.7-33.1-26-19.9-2.7-46.8 5.5-59.5 26.4-4.6 7.6-2.2 17.5 5.4 22.1 7.6 4.6 17.5 2.2 22.1-5.4 5-8.2 18.4-12.4 27.7-11.2 3.7 0.5 6.3 1.8 6.5 2.8 2.4 8.4-1.4 19.5-11.1 32.9-4.8 6.5-3.6 15.3 2 20.8-150.3 8.6-305-16.2-463.1-73.9 1.3-2.8 1.9-6 1.4-9.3-0.3-1.7-0.6-3.5-0.6-5.3 0.1-18.9 15.5-34.3 34.3-34.3z m357.9 476c-218 0-390.9-167.1-406.1-385.9 282.7 102.9 555.6 103.3 812 1.2C902.2 706.6 729.6 873.1 512 873.1z" fill="#333333" p-id="58671"></path><path d="M306.2 478.4c0.7 0 1.5 0 2.2-0.1 8.8-1.2 14.9-9.4 13.7-18.1-3.1-21.9 2.6-36.4 15.5-39.7 12.6-3.3 30.5 4.6 36.9 21.6 3.1 8.3 12.4 12.5 20.7 9.4 8.3-3.1 12.5-12.4 9.4-20.7-11.7-30.9-44.5-49.1-74.9-41.4-23.3 5.9-45.9 28.8-39.4 75.3 1.1 7.8 8 13.7 15.9 13.7z" fill="#333333" p-id="58672"></path></svg>