<?xml version="1.0" standalone="no"?><!DOCTYPE svg PUBLIC "-//W3C//DTD SVG 1.1//EN" "http://www.w3.org/Graphics/SVG/1.1/DTD/svg11.dtd"><svg t="1690939731160" class="icon" viewBox="0 0 1024 1024" version="1.1" xmlns="http://www.w3.org/2000/svg" p-id="63985" xmlns:xlink="http://www.w3.org/1999/xlink" width="200" height="200"><path d="M160 409.6c0 12.8 6.4 25.6 6.4 38.4 0 6.4 6.4 6.4 12.8 6.4H192c12.8-6.4 6.4-19.2 12.8-38.4 6.4-25.6 12.8-51.2 32-64 12.8-19.2 44.8-38.4 83.2-44.8 19.2-6.4 32 0 44.8-12.8 0-6.4 0-19.2-6.4-25.6-19.2 0-32-6.4-51.2-6.4-32-6.4-57.6-25.6-76.8-51.2-12.8-19.2-19.2-38.4-25.6-57.6-6.4-6.4-6.4-32-12.8-38.4 0-6.4-6.4-6.4-19.2-6.4-6.4 0-6.4 6.4-6.4 6.4-12.8 64-25.6 102.4-70.4 128-19.2 12.8-38.4 19.2-57.6 25.6H12.8c-6.4 0-12.8 6.4-12.8 12.8v6.4c0 6.4 6.4 12.8 12.8 12.8h32c19.2 6.4 38.4 12.8 57.6 25.6 25.6 19.2 44.8 51.2 57.6 83.2zM89.6 288c12.8-12.8 25.6-19.2 38.4-25.6 25.6-19.2 44.8-38.4 57.6-70.4 25.6 32 44.8 70.4 89.6 89.6-12.8 6.4-19.2 12.8-32 19.2-19.2 12.8-51.2 44.8-57.6 70.4-32-32-44.8-70.4-96-83.2z m524.8 556.8c-19.2 12.8-44.8 25.6-70.4 32-102.4 38.4-268.8 12.8-345.6-38.4 12.8-6.4 32-6.4 44.8-12.8 32-6.4 64-19.2 89.6-38.4 115.2-70.4 275.2-243.2 236.8-448-12.8-38.4-25.6-76.8-38.4-108.8L512 172.8c44.8 12.8 76.8 38.4 108.8 64 89.6 64 179.2 172.8 166.4 332.8h44.8c0-204.8-102.4-320-236.8-403.2-32-19.2-64-38.4-108.8-51.2-6.4-6.4-25.6-12.8-44.8-6.4-19.2 19.2 19.2 83.2 32 102.4 51.2 108.8 64 230.4 12.8 345.6-51.2 96-128 172.8-230.4 211.2-32 12.8-64 19.2-96 25.6-12.8 0-32 6.4-44.8 6.4-6.4 6.4-12.8 12.8-6.4 25.6 6.4 19.2 76.8 51.2 96 64 96 44.8 243.2 70.4 364.8 25.6 38.4-12.8 70.4-32 96-51.2 12.8-6.4 19.2-19.2 32-25.6 0-6.4 6.4-6.4 6.4-12.8H633.6l-19.2 19.2z m384-140.8c-6.4 0-64 19.2-96 12.8-64-12.8-102.4-51.2-185.6-51.2-12.8 6.4-32 6.4-51.2 12.8l-38.4 19.2c-6.4 12.8 19.2 25.6 25.6 38.4 32-6.4 57.6-32 108.8-19.2 70.4 12.8 128 70.4 217.6 38.4 12.8-6.4 32-6.4 44.8-19.2-12.8-12.8-19.2-19.2-25.6-32z" fill="#836A40" p-id="63986"></path></svg>