<?xml version="1.0" standalone="no"?><!DOCTYPE svg PUBLIC "-//W3C//DTD SVG 1.1//EN" "http://www.w3.org/Graphics/SVG/1.1/DTD/svg11.dtd"><svg t="1690939963359" class="icon" viewBox="0 0 1041 1024" version="1.1" xmlns="http://www.w3.org/2000/svg" p-id="65044" xmlns:xlink="http://www.w3.org/1999/xlink" width="203.3203125" height="200"><path d="M768.226512 754.202079c-88.815994 77.492495-179.663302 5.229555-76.930642-84.407609a333.870341 333.870341 0 0 0 37.168737-467.93711c-8.643892-29.821428-59.729296-58.692029-75.893375-86.438923 6.526139 24.807971 49.226967 50.048137 50.998965 75.374741a408.985765 408.985765 0 0 1-140.420031 338.149067 386.684523 386.684523 0 0 1-408.423912 79.696687 229.365683 229.365683 0 0 0 57.309006 43.651656 341.9956 341.9956 0 0 0 75.072205 57.222568c55.36413 31.247671 49.78882 160.300983-61.933488 95.990424a455.749222 455.749222 0 0 1-109.561335-88.081263 447.364647 447.364647 0 0 1-57.00647-77.795031c-78.054348-135.363354 8.643892-155.590062 93.09472-146.470755a313.427535 313.427535 0 0 0 334.561852-48.232919A297.220237 297.220237 0 0 0 562.501875 96.142557c36.693323-113.451087 89.680383-149.193581 243.282349 19.405538a445.592649 445.592649 0 0 1-37.557712 638.653984zM328.079515 118.875993L372.336244 201.684482l90.760869 17.849638-62.927536 69.151138 11.064182 93.91589-83.327122-40.194099-83.327122 40.194099 11.409938-93.959109-62.927536-69.151139 90.415113-17.849638 44.429607-82.938146M58.433294 910.397213h262.51501c59.902174 0 126.935559-75.41796 194.746894-75.41796 71.873965 0 144.612318 75.41796 210.608436 75.41796h256.637163a56.574275 56.574275 0 1 1 0 113.105331H722.413882c-64.094462 0-134.326087-75.41796-203.8662-75.41796-72.479037 0-144.136904 75.41796-207.453416 75.41796H58.433294a56.574275 56.574275 0 1 1 0-113.105331z" fill="#836A40" p-id="65045"></path></svg>