<?xml version="1.0" standalone="no"?><!DOCTYPE svg PUBLIC "-//W3C//DTD SVG 1.1//EN" "http://www.w3.org/Graphics/SVG/1.1/DTD/svg11.dtd"><svg t="1690940057378" class="icon" viewBox="0 0 1024 1024" version="1.1" xmlns="http://www.w3.org/2000/svg" p-id="65407" xmlns:xlink="http://www.w3.org/1999/xlink" width="200" height="200"><path d="M856.874667 649.856c-7.168-7.210667-20.096-9.130667-34.944-2.858667-34.517333 13.397333-75.690667 21.546667-128.896 21.546667-204.629333 0-335.402667-126.464-335.402667-329.642667 0-53.205333 9.6-106.368 25.386667-137.984 7.68-16.298667 7.210667-30.677333-0.469334-39.296-8.149333-9.088-22.101333-11.989333-41.728-3.84-135.125333 58.453333-228.522667 199.338667-228.522666 366.08 0 217.045333 157.184 385.28 389.077333 385.28 164.352 0 297.557333-80.981333 357.930667-219.52 7.637333-17.706667 5.205333-31.658667-2.432-39.765333z m-355.072 200.277333c-196.949333 0-330.112-143.744-330.112-330.624 0-119.808 59.434667-224.256 148.053333-288.938666-11.946667 30.677333-19.157333 77.610667-19.157333 123.605333 0 224.725333 151.424 371.797333 379.050666 371.797333 43.093333 0 82.858667-6.698667 104.917334-14.378666-56.576 85.333333-162.432 138.538667-282.752 138.538666zM521.173333 296.618667c-13.397333-76.202667-12.458667-78.592-92.970666-93.44-4.778667-0.938667-7.68-3.84-7.68-8.618667s2.858667-7.168 7.68-8.149333c80-16.298667 79.530667-17.749333 92.970666-93.44 0.938667-4.309333 3.84-7.168 8.106667-7.168 4.821333 0 7.210667 2.858667 8.149333 7.168 13.397333 75.690667 13.909333 77.141333 93.397334 93.44 4.352 0.938667 7.68 3.370667 7.68 8.149333s-3.328 7.68-7.68 8.618667c-80 14.848-80 17.237333-93.397334 93.44-0.938667 4.309333-3.328 7.168-8.149333 7.168-4.266667 0-7.168-2.858667-8.106667-7.168z" p-id="65408"></path><path d="M776.917333 570.624c-15.317333-121.728-18.688-121.216-144.682666-144.725333-6.741333-0.938667-11.989333-5.76-11.989334-12.928 0-7.68 5.248-12.458667 11.989334-13.397334 125.482667-19.157333 128.426667-21.546667 144.682666-144.213333 0.981333-7.168 6.229333-12.458667 13.397334-12.458667 7.210667 0 12.501333 5.290667 13.397333 12.928 15.829333 121.216 21.077333 119.808 144.768 143.744 6.656 0.938667 11.946667 5.76 11.946667 13.397334s-5.290667 11.989333-13.397334 12.928c-123.136 20.138667-127.445333 22.528-143.274666 143.744-0.896 7.68-6.229333 12.928-13.397334 12.928a13.568 13.568 0 0 1-13.44-11.946667z" p-id="65409"></path></svg>