<?xml version="1.0" standalone="no"?><!DOCTYPE svg PUBLIC "-//W3C//DTD SVG 1.1//EN" "http://www.w3.org/Graphics/SVG/1.1/DTD/svg11.dtd"><svg t="1691136236905" class="icon" viewBox="0 0 1111 1024" version="1.1" xmlns="http://www.w3.org/2000/svg" p-id="25820" xmlns:xlink="http://www.w3.org/1999/xlink" width="216.9921875" height="200"><path d="M155.45 282.525H405.9c38.246 0 69.089-30.843 69.089-69.089V48.116h245.513c13.571 0 23.441-11.104 23.441-23.441 0-13.571-11.103-23.441-23.44-23.441H170.254c-2.467 0-4.935 0-7.402 1.233C160.386 0 157.918 0 155.451 0c-39.48 0-70.323 30.843-70.323 69.09v144.346c0 38.246 30.843 69.09 70.323 69.09zM133.244 69.09c0-12.337 9.87-20.973 20.974-20.973 2.467 0 4.935 0 7.402-1.234 2.468 1.234 4.935 1.234 7.403 1.234h256.617v165.32c0 12.337-9.87 20.974-20.974 20.974H155.451c-12.338 0-20.974-9.87-20.974-20.974V69.09z m891.99 458.95V398.496c0-38.245-30.843-69.089-69.088-69.089H155.45c-38.246 0-69.09 30.844-69.09 67.856L67.855 801.928H39.48C17.272 801.928 0 819.2 0 841.408v144.346C0 1006.728 17.272 1024 39.48 1024H525.57c20.974 0 39.48-17.272 39.48-39.48V841.407c0-20.973-17.273-39.48-39.48-39.48H478.69l-2.467-220.838 301.031-25.908c9.87 24.674 34.545 41.947 64.154 41.947h113.504c38.246 0 70.323-30.844 70.323-69.09z m-48.115-107.335H746.41c-6.169 0-12.338 4.935-12.338 12.337s4.935 12.337 12.338 12.337h230.708v82.66c0 12.338-9.87 20.974-20.973 20.974H842.64c-12.337 0-20.974-8.636-20.974-19.74v-25.908L429.34 537.908l1.233 288.694c0 3.702 1.234 8.637 3.702 11.104 3.7 7.402 12.337 12.337 20.973 12.337h61.687v127.075H48.115V850.043h43.181c13.571 0 23.441-11.103 23.441-23.44V822.9l18.506-424.405c0-12.337 9.87-20.973 22.208-20.973h800.694c12.337 0 20.973 9.87 20.973 20.973v22.208z m-183.826 218.37c-12.338-3.7-25.909 4.936-29.61 17.273l-9.87 40.713c-3.701 12.338 4.935 25.909 17.272 28.376 2.468 0 3.702 1.234 6.169 1.234 11.104 0 20.974-7.403 23.441-18.506l9.87-40.713c3.701-12.338-4.935-24.675-17.272-28.376zM759.98 772.319c-12.338-3.701-25.909 4.935-29.61 17.272l-16.038 64.155c-3.702 12.337 4.934 25.908 17.272 28.375 2.467 0 3.701 1.234 6.168 1.234 11.104 0 20.974-7.402 23.441-18.506l16.039-64.154c3.701-12.337-3.701-24.675-17.272-28.376zM720.5 929.002c-12.337-3.7-25.908 4.935-29.61 17.273l-8.636 40.713c-3.7 12.337 4.935 25.908 17.273 28.376 2.467 0 3.7 1.234 6.168 1.234 11.104 0 20.974-7.403 23.441-18.506l9.87-40.714c2.468-11.103-4.935-24.674-18.506-28.376zM898.16 632.906c-13.571 0-23.44 11.104-23.44 23.441v41.947c0 13.571 11.103 23.44 23.44 23.44 13.571 0 23.441-11.103 23.441-23.44v-41.947c0-12.337-11.104-23.441-23.441-23.441z m0 138.178c-13.571 0-23.44 11.104-23.44 23.441v66.622c0 13.571 11.103 23.441 23.44 23.441 13.571 0 23.441-11.104 23.441-23.441v-66.622c0-13.57-11.104-23.44-23.441-23.44z m0 161.62c-13.571 0-23.44 11.103-23.44 23.44v43.181c0 13.571 11.103 23.441 23.44 23.441 13.571 0 23.441-11.103 23.441-23.44v-41.948c0-13.57-11.104-24.674-23.441-24.674z m129.542-207.268c13.571-2.467 20.974-14.805 18.506-28.376l-8.636-40.713c-2.467-12.337-14.805-20.974-28.376-18.506-13.57 2.467-20.973 14.805-18.506 28.376l8.636 40.713c2.468 11.104 12.338 18.506 23.441 18.506h4.935z m33.311 159.152c13.571-2.468 20.974-14.805 18.506-28.376l-13.571-65.388c-2.467-12.337-14.805-20.973-28.376-18.506-13.571 2.468-20.973 14.805-18.506 28.376l13.571 65.388c2.468 11.104 12.337 18.506 23.441 18.506h4.935z m46.882 104.867l-8.636-40.713c-2.468-12.337-14.805-20.973-28.376-18.506-13.571 2.468-20.974 14.805-18.506 28.376l8.636 40.713c2.468 11.104 12.337 18.506 23.441 18.506h4.935c12.337-2.467 20.973-14.804 18.506-28.376zM384.925 809.33H154.217c-6.169 0-12.337 4.935-12.337 12.337 0 6.17 4.934 12.338 12.337 12.338h230.708c6.169 0 12.338-4.935 12.338-12.338 0-7.402-4.935-12.337-12.338-12.337z" p-id="25821"></path></svg>