<?xml version="1.0" standalone="no"?><!DOCTYPE svg PUBLIC "-//W3C//DTD SVG 1.1//EN" "http://www.w3.org/Graphics/SVG/1.1/DTD/svg11.dtd"><svg t="1690963069760" class="icon" viewBox="0 0 1024 1024" version="1.1" xmlns="http://www.w3.org/2000/svg" p-id="4748" xmlns:xlink="http://www.w3.org/1999/xlink" width="200" height="200"><path d="M744.946 940H281.054C150.342 940 44 848.486 44 736c0-41.386 13.166-86.34 35.222-120.248 20.908-32.146 48.568-53.46 79.874-62.106-5.204-15.178-5.146-31.144-5.102-43.292L154 507c0-38.068 15.572-74.978 43.848-103.93 26.65-27.29 63.514-46.332 103.828-53.638-7.514-21.994-4.886-73.346-0.478-92.756 14.23-62.656 66.476-124.586 96.352-155.928 23.452-24.6 82.224-81.818 121.388-81.818 4.222 0 8.32 0.582 12.182 1.728 11.244 3.344 30.12 14.12 30.208 48.724 0.032 12.104-1.974 26.292-4.1 41.312-2.25 15.894-4.574 32.33-4.576 46.412-0.002 5.658 0.382 9.842 0.886 12.894h92.876c71.97 0 130.524 59.214 130.524 132 0 15.564-0.466 37.158-10.338 55.562 67.224 17.094 107.4 86.802 107.4 149.438v0.226c0 13.996 0.468 31.338-5.404 47.69 70.516 19.19 113.17 102.862 113.17 181.084 0 112.486-106.108 204-236.82 204zM219.608 532.916c10.708 9.6 31.526 28.892 21.828 54.266-9.978 26.11-40.062 26.11-49.948 26.11C137.73 613.292 108 685.848 108 736c0 77.196 77.632 140 173.054 140h463.892C840.368 876 918 813.196 918 736c0-49.522-28.416-121.162-79.794-121.162-2.348 0-4.622 0.064-6.754 0.12-2.422 0.064-4.704 0.122-6.784 0.122-25.25 0-35.614-12.248-39.862-22.524-10.128-24.496 9.512-44.552 22.818-57.824 2.844-3.384 2.376-20.286 2.376-27.502v-0.23c0-40.89-28.19-86.506-70.852-89.236-12.536-0.802-45.596-2.934-55.202-30.622-9.458-27.266 13.84-48.616 26.872-60.328 2.002-4.25 2.06-17.566 2.06-24.814 0-37.496-29.784-68-66.464-68h-122.538l-8.856-7.272c-34.8-28.586-27.24-82.044-21.164-124.998l0.348-2.464c-14.876 11.23-34.212 28.166-55.348 50.978-40.292 43.492-67.722 87.452-75.252 120.606-2.912 12.822-3.44 45.166-1.668 56.334 1.424 1.486 4.014 3.684 5.848 5.242 8.02 6.81 29.326 24.9 19.008 51.244-10.684 27.278-41.954 27.946-64.786 28.432-3.16 0.068-7.45 0.16-9.036 0.326C257.922 422.448 218 462.182 218 507l-0.008 3.584c-0.024 6.5-0.066 18.4 1.616 22.332z" p-id="4749"></path><path d="M510.338 782.88l-0.92-0.004c-57.558-0.378-105.192-35.276-121.354-88.904-3.984-13.218 3.502-27.166 16.722-31.15 13.218-3.986 27.166 3.062 31.15 16.286 11.78 39.082 47.122 52.892 73.808 52.892h0.536c27.63 0 61.382-13.632 73.88-53.208 4.158-13.166 18.208-20.246 31.368-16.092 13.168 4.158 20.47 18.312 16.312 31.478-17.022 53.902-64.652 88.702-121.502 88.702z" p-id="4750"></path><path d="M384.5 560.5m-44.5 0a44.5 44.5 0 1 0 89 0 44.5 44.5 0 1 0-89 0Z" p-id="4751"></path><path d="M638.5 564.5m-44.5 0a44.5 44.5 0 1 0 89 0 44.5 44.5 0 1 0-89 0Z" p-id="4752"></path></svg>