<?xml version="1.0" standalone="no"?><!DOCTYPE svg PUBLIC "-//W3C//DTD SVG 1.1//EN" "http://www.w3.org/Graphics/SVG/1.1/DTD/svg11.dtd"><svg t="1690938488307" class="icon" viewBox="0 0 1024 1024" version="1.1" xmlns="http://www.w3.org/2000/svg" p-id="38007" xmlns:xlink="http://www.w3.org/1999/xlink" width="200" height="200"><path d="M840.533333 802.133333c21.333333-25.6 17.066667-46.933333 17.066667-46.933333h64s0 17.066667-4.266667 38.4c-4.266667 17.066667-8.533333 29.866667-12.8 42.666667-8.533333 29.866667-51.2 64-51.2 64-46.933333 38.4-98.133333 34.133333-98.133333 34.133333s-59.733333 8.533333-106.666667-21.333333-85.333333-93.866667-85.333333-93.866667-187.733333 51.2-332.8-72.533333c-145.066667-123.733333-136.533333-273.066667-136.533333-285.866667 0-29.866667 17.066667-362.666667 366.933333-375.466667 204.8-8.533333 315.733333 119.466667 358.4 221.866667 29.866667 72.533333 29.866667 128 29.866667 136.533333 0 8.533333 0 46.933333-8.533334 85.333334-4.266667 38.4-21.333333 81.066667-34.133333 102.4-12.8 21.333333-29.866667 51.2-51.2 72.533333-21.333333 25.6-46.933333 46.933333-51.2 51.2 0 0 42.666667 51.2 68.266667 59.733333 8.533333 0 46.933333 12.8 68.266666-12.8m-298.666666-64c4.266667-4.266667-12.8-25.6-21.333334-38.4-8.533333-12.8 4.266667 4.266667-29.866666-42.666666-12.8-21.333333-29.866667-29.866667-55.466667-34.133334h-29.866667c-21.333333 0-34.133333 4.266667-38.4 4.266667 0-4.266667-8.533333-12.8-12.8-21.333333-4.266667-8.533333-4.266667-21.333333-4.266666-21.333334 0-8.533333 64-38.4 136.533333-38.4 59.733333 0 102.4 34.133333 119.466667 51.2 17.066667 12.8 21.333333 29.866667 38.4 42.666667 0 0 4.266667 0 4.266666 4.266667 17.066667 12.8 38.4-128 34.133334-221.866667-4.266667-93.866667-8.533333-140.8-42.666667-187.733333-29.866667-42.666667-93.866667-76.8-153.6-76.8-29.866667 0-128 4.266667-170.666667 76.8-51.2 85.333333-42.666667 238.933333-42.666666 238.933333s-12.8 136.533333 59.733333 209.066667c72.533333 72.533333 145.066667 59.733333 179.2 59.733333l29.866667-4.266667z" p-id="38008"></path></svg>