<?xml version="1.0" standalone="no"?><!DOCTYPE svg PUBLIC "-//W3C//DTD SVG 1.1//EN" "http://www.w3.org/Graphics/SVG/1.1/DTD/svg11.dtd"><svg t="1691137496349" class="icon" viewBox="0 0 1024 1024" version="1.1" xmlns="http://www.w3.org/2000/svg" p-id="39351" xmlns:xlink="http://www.w3.org/1999/xlink" width="200" height="200"><path d="M554.666667 298.666667l-213.333334 298.666666h128v213.333334l213.333334-298.666667h-128z" fill="#09121F" p-id="39352"></path><path d="M768 170.666667h-128V128c0-25.6-17.066667-42.666667-42.666667-42.666667h-170.666666c-25.6 0-42.666667 17.066667-42.666667 42.666667v42.666667H256c-25.6 0-42.666667 17.066667-42.666667 42.666666v682.666667c0 25.6 17.066667 42.666667 42.666667 42.666667h512c25.6 0 42.666667-17.066667 42.666667-42.666667V213.333333c0-25.6-17.066667-42.666667-42.666667-42.666666z m-42.666667 682.666666H298.666667V256h170.666666V170.666667h85.333334v85.333333h170.666666v597.333333z" fill="#09121F" p-id="39353"></path></svg>