<?xml version="1.0" standalone="no"?><!DOCTYPE svg PUBLIC "-//W3C//DTD SVG 1.1//EN" "http://www.w3.org/Graphics/SVG/1.1/DTD/svg11.dtd"><svg t="1691136963523" class="icon" viewBox="0 0 1024 1024" version="1.1" xmlns="http://www.w3.org/2000/svg" p-id="27879" xmlns:xlink="http://www.w3.org/1999/xlink" width="200" height="200"><path d="M106.666667 128a42.666667 42.666667 0 0 1 42.666666-42.666667h365.738667a42.666667 42.666667 0 0 1 30.890667 72.106667L248.874667 469.333333H533.333333a42.666667 42.666667 0 1 1 0 85.333334h-384a42.666667 42.666667 0 0 1-30.890666-72.106667L415.488 170.666667H149.333333a42.666667 42.666667 0 0 1-42.666666-42.666667z" fill="#000000" fill-opacity=".85" p-id="27880"></path><path d="M576 320a42.666667 42.666667 0 0 1 42.666667-42.666667h256a42.666667 42.666667 0 0 1 32.426666 70.4l-195.669333 228.266667H874.666667a42.666667 42.666667 0 1 1 0 85.333333h-256a42.666667 42.666667 0 0 1-32.426667-70.4l195.669333-228.266666H618.666667a42.666667 42.666667 0 0 1-42.666667-42.666667zM320 640a42.666667 42.666667 0 1 0 0 85.333333h96.853333l-128.512 142.08A42.666667 42.666667 0 0 0 320 938.666667h213.333333a42.666667 42.666667 0 1 0 0-85.333334H416.128l128.512-142.08a42.666667 42.666667 0 0 0-31.616-71.253333H320z" fill="#000000" fill-opacity=".85" p-id="27881"></path></svg>