<?xml version="1.0" standalone="no"?><!DOCTYPE svg PUBLIC "-//W3C//DTD SVG 1.1//EN" "http://www.w3.org/Graphics/SVG/1.1/DTD/svg11.dtd"><svg t="1691137721548" class="icon" viewBox="0 0 1024 1024" version="1.1" xmlns="http://www.w3.org/2000/svg" p-id="67736" xmlns:xlink="http://www.w3.org/1999/xlink" width="200" height="200"><path d="M445.05851 168.799373h-70.27451a70.475294 70.475294 0 0 0-70.27451 70.274509v597.333334a70.475294 70.475294 0 0 0 70.27451 70.274509h281.098039a70.475294 70.475294 0 0 0 70.27451-70.274509v-597.333334a70.475294 70.475294 0 0 0-70.27451-70.274509h-70.27451c0-19.335529-15.801725-35.137255-35.137254-35.137255h-70.27451c-19.315451 0-35.137255 15.801725-35.137255 35.137255z m35.137255 35.137254h175.686274c19.335529 0 35.137255 15.801725 35.137255 35.137255v597.333334c0 19.315451-15.801725 35.137255-35.137255 35.137255h-281.098039c-19.315451 0-35.137255-15.821804-35.137255-35.137255v-597.333334c0-19.335529 15.821804-35.137255 35.137255-35.137255h105.411765z" fill="#2C2C2C" p-id="67737"></path><path d="M583.358745 324.286745l-167.413961 217.509647 89.750589 43.088314-70.073726 165.024627 179.099608-199.780392-94.08753-41.702902" fill="#000000" p-id="67738"></path></svg>