<?xml version="1.0" standalone="no"?><!DOCTYPE svg PUBLIC "-//W3C//DTD SVG 1.1//EN" "http://www.w3.org/Graphics/SVG/1.1/DTD/svg11.dtd"><svg t="1691156694864" class="icon" viewBox="0 0 1309 1024" version="1.1" xmlns="http://www.w3.org/2000/svg" p-id="96789" xmlns:xlink="http://www.w3.org/1999/xlink" width="255.6640625" height="200"><path d="M898.32422 1023.427087l-53.280902-1.22767s4.542381-187.751748 5.810974-207.885546c1.514127-23.32574 11.744715-38.385166 20.870399-51.725852l11.744715-18.169524c69.036007-112.25001 89.742717-129.642009 113.354913-127.882348 46.446869 3.560245 70.795668-4.092235 83.236063-11.049035l18.210447-9.985054c26.10846-14.240978 101.446509-55.449786 122.112296-71.327658 0-34.129241-26.845063-162.461735-43.17308-192.29413-9.821364-18.005835-34.047396-54.672262-55.654398-87.000919-28.113655-42.477401-44.318907-67.030812-49.229589-78.284458-5.238061-8.716461-39.817448-31.223754-54.631339-40.799585-7.775247-5.115294-14.732047-9.616753-19.642729-13.136074-6.997722-5.033449-23.366663-17.596611-28.277345-16.082485-18.906126 2.864565-46.160412 25.985693-44.523518 51.971387 0.450146 7.570635 6.342964 16.328018 16.246173 23.939575 15.83695 12.276705 33.76094 16.287096 40.02206 15.30496 29.545938-5.974663 61.710906-12.399472 82.458538 21.197778 13.627143 21.893458 32.328658 52.012309 33.024338 93.916796 1.227671 66.212365 3.560245 104.556608 7.161411 114.33705 8.470927 16.246174 7.734324 30.200695-2.373496 40.513128-15.182192 15.632338-34.98861 5.810974-44.523518 1.186748-13.504376-6.670343-41.208808-14.977581-57.700516-9.453063-13.913599 4.828837-18.496903 9.125684-24.348799 14.568357a84.136355 84.136355 0 0 1-15.264037 11.867482c-19.806418 11.458258-39.203613-1.186748-68.463094-20.502098-13.545298-8.839228-41.536187-27.295208-50.907405-27.417975-24.798945 1.186748-36.748272 2.61903-41.086041 5.074371-18.415058 10.025976-37.484874 0.736602-73.251009-35.356911-35.807058-36.134436-45.710267-57.454981-35.193222-76.115574 1.432282-2.659953 5.319906-8.307237 10.762578-15.959717 13.74991-19.31535 55.490709-78.202614 55.490709-102.592335 0-55.777165-15.673261-149.32566-120.966471-149.325661s-121.007393 93.548495-121.007394 149.325661c0 24.389721 41.740798 83.276985 55.531631 102.633257 5.40175 7.611557 9.289374 13.258842 10.762579 15.83695 10.517044 18.742437 0.613835 40.062982-35.193222 76.197419-35.807058 36.134436-54.99964 45.341965-73.128242 35.397834-4.501459-2.455341-16.450785-3.928546-41.331575-5.074372-9.289374 0.081845-37.23934 18.496903-50.784639 27.377053-29.341326 19.31535-48.697598 31.960356-68.463093 20.461176a84.259122 84.259122 0 0 1-15.264038-11.82656c-5.892819-5.442673-10.476122-9.73952-24.430643-14.609279-16.409863-5.483595-44.114295 2.823642-57.659594 9.453063-9.371218 4.665148-29.177637 14.486512-44.482596-1.145826-10.107821-10.312433-10.885345-24.266954-1.92335-41.413419 3.110099-8.88015 5.483595-47.224394 6.670343-113.273069 0.736602-42.027255 19.438117-72.105183 31.796667-92.034369 22.09807-35.479679 54.099349-29.136714 79.798586-24.02142 8.18447 1.473205 23.612197-2.578108 39.776525-15.755105 12.276705-9.903209 19.929185-21.279623 20.379331-30.323463 1.555049-25.453703-25.781081-41.536187-44.646285-44.400751-4.296847-0.531991-21.115933 11.089957-28.113656 16.082484-4.910682 3.519322-11.908404 8.061703-19.642728 13.095153-14.732047 9.616753-49.270511 32.124046-54.917796 41.495264-4.624226 10.639811-20.788555 35.1523-48.820365 77.466011C129.63877 277.003397 105.208126 313.833513 95.386762 331.839348c-16.368941 30.037006-43.541382 159.883627-43.173081 192.948887 17.432922 13.422531 95.390001 56.063621 122.030452 70.591056l18.415058 10.107821c12.399472 6.915877 36.830116 14.527435 83.072374 11.008112 23.612197-1.636894 44.359829 15.550494 113.273069 127.473125l11.990249 18.660592c9.002917 13.299764 19.274428 28.35919 20.747632 51.68493 1.268593 20.051952 5.810974 207.803701 5.810974 207.803701l-53.280902 1.22767s-4.460536-185.664708-5.810974-205.593893c-0.491068-8.470927-3.683012-13.504376-11.581025-25.085402l-13.258842-20.706709c-43.909683-71.041202-62.815809-94.407865-71.00028-101.814811-44.318907 2.332574-79.921352-3.642089-105.784278-18.005835l-18.169524-9.903209C36.049352 580.688167 13.337447 564.56476 5.071132 551.756064c-20.665787-32.124046 27.827199-216.724773 43.459538-245.411341 11.049035-20.133797 34.98861-56.268233 58.191583-91.256844 17.432922-26.190305 41.372497-62.161052 44.646286-69.731687 8.961995-20.54302 36.461815-39.612836 74.437757-64.329936 7.120489-4.583303 13.299764-8.634616 17.719378-11.785637 19.233505-13.790832 41.208808-29.341326 67.235424-25.453703 46.733325 7.079567 93.09835 46.528714 89.906406 100.259761-1.473205 25.535547-16.655397 50.620949-42.64109 70.795668-20.174719 15.591416-51.152939 30.28254-77.179555 25.290013-12.194861-2.455341-23.653119-4.828837-26.926907-3.969468-12.072094 20.583943-24.471566 40.55405-24.962635 67.685569-0.818447 43.459537-1.964273 73.823922-3.887623 95.267235 19.642729-5.197139 43.295848-7.775247 65.475762-0.040923 22.834672 7.938936 34.129241 17.514766 41.658954 24.389722 5.810974-3.437478 13.504376-8.511849 19.642729-12.604085 27.827199-18.333213 55.531631-37.566719 82.622227-36.134436 23.48943 1.063981 38.958079 2.455341 51.316629 6.138353a286.620149 286.620149 0 0 0 42.559245-42.886624c-0.286456-0.491068-0.654758-0.941214-1.023059-1.39136-33.965552-47.879151-65.352995-97.190585-65.352995-133.529633 0-47.551772 12.604084-202.688407 174.329217-202.688407 161.806978 0 174.370139 155.136634 174.37014 202.688407 0 36.339048-31.387444 85.650482-65.312073 133.529633-0.409224 0.450146-0.736602 0.900292-1.063981 1.39136 9.698597 12.767774 30.364385 33.638173 42.559245 42.886624 12.276705-3.683012 27.786277-5.074372 51.357551-6.138353 26.353994-1.063981 54.754106 17.842145 82.622228 36.134436 6.138353 4.092235 13.831755 9.166607 19.642729 12.604085 7.48879-6.874955 18.824282-16.450785 41.740798-24.389722 22.220837-7.857091 46.487791-5.033449 65.557607-0.122767-2.08704-21.688846-3.273788-51.848619-4.051313-94.939855-0.491068-27.336131-12.931463-47.306238-23.775886-64.90285-4.501459-3.805779-15.877872-1.39136-24.144187 0.245535-27.827199 5.40175-61.137993-4.70607-86.878152-24.635256-22.507293-17.351077-35.602446-39.694681-36.911961-63.020421-3.273788-55.081485 44.687208-101.078208 89.865483-107.912241 26.599528-3.764856 48.083763 11.703793 67.276346 25.453703 4.378692 3.151021 10.639811 7.202334 17.719378 11.785637 37.93502 24.7171 65.475762 43.786916 74.396835 64.289014 3.437478 7.693402 27.295208 43.745994 44.809975 70.018143 23.121129 34.865843 47.060704 70.959357 58.027894 91.01131 15.632338 28.686568 64.166247 213.287296 43.459538 245.370419-8.266315 12.849618-30.937298 28.973025-143.760221 90.602086l-17.842145 9.862287c-26.067538 14.363745-61.792751 20.338409-105.98889 18.005834-8.18447 7.406946-27.213364 30.855453-71.123047 102.183112l-13.095153 20.297486c-7.898014 11.581025-11.089957 16.614475-11.621948 25.044479-1.350438 20.01103-5.810974 205.716661-5.810973 205.716661z" fill="#272636" p-id="96790"></path></svg>