<?xml version="1.0" standalone="no"?><!DOCTYPE svg PUBLIC "-//W3C//DTD SVG 1.1//EN" "http://www.w3.org/Graphics/SVG/1.1/DTD/svg11.dtd"><svg t="1690939119655" class="icon" viewBox="0 0 1276 1024" version="1.1" xmlns="http://www.w3.org/2000/svg" p-id="59707" xmlns:xlink="http://www.w3.org/1999/xlink" width="249.21875" height="200"><path d="M756.414473 46.084015l19.256637 109.718382a1.433852 1.433852 0 0 0 0.157724 0.788619 39.678996 39.678996 0 1 0 78.159292-13.736306c0-0.315448-0.157724-0.473171-0.157724-0.788618l-19.270976-109.718383a39.674695 39.674695 0 0 0-78.144953 13.736306z m519.054554 296.807438a39.617341 39.617341 0 0 0-45.883276-32.204324c-0.315448 0-0.473171 0.157724-0.788619 0.157724l-109.732721 19.270975a39.603002 39.603002 0 0 0 13.736306 77.98723l109.732721-19.256637a1.433852 1.433852 0 0 0 0.788619-0.157724 39.473955 39.473955 0 0 0 32.204324-45.797244z m-268.130391-134.351966a39.559987 39.559987 0 0 0 54.945222-9.32004l63.949815-91.092641c0.157724-0.157724 0.315448-0.473171 0.473171-0.630895a39.660356 39.660356 0 0 0-64.795788-45.63952c-0.157724 0.157724-0.315448 0.473171-0.473171 0.630895l-63.935477 91.250364a39.775064 39.775064 0 0 0 9.936597 54.787498z m-496.844181 8.531421l91.09264 63.935477c0.157724 0.157724 0.473171 0.315448 0.630895 0.473171a39.660356 39.660356 0 1 0 45.625182-64.881819c-0.157724-0.157724-0.473171-0.315448-0.630895-0.473171l-90.99227-63.935477a39.674695 39.674695 0 0 0-45.625182 64.896158z m702.515963 396.589224c-0.157724-0.157724-0.473171-0.315448-0.630895-0.473171l-91.264703-63.935477a39.617341 39.617341 0 0 0-45.467458 64.881819l91.09264 63.949816c0.157724 0.157724 0.48751 0.315448 0.645234 0.473171a39.664658 39.664658 0 0 0 45.625182-64.896158z" p-id="59708" fill="#836A40"></path><path d="M990.390501 544.978604a182.529405 182.529405 0 1 0-296.965162-200.337851 343.0205 343.0205 0 0 0-170.198275-44.850902c-141.951383 0-263.828834 85.730032-316.709309 208.252716a260.832082 260.832082 0 0 0 54.299989 515.928756c3.326537 0 6.638736 0 9.950935-0.157724h551.646018v-0.315447c146.668758-3.312199 264.760838-123.311303 264.760838-270.76868a271.256189 271.256189 0 0 0-96.785034-207.779545zM841.040439 298.44203a119.124454 119.124454 0 0 1 94.404839 210.776296 270.266831 270.266831 0 0 0-108.141144-27.472611 345.916881 345.916881 0 0 0-81.629215-100.728128c13.263134-48.148762 52.894813-75.148202 95.36552-82.575557z m-18.640081 638.480116s-19.744147 0.473171-24.791307-0.157723H258.13644c-98.519996-0.946343-170.82917-73.886412-170.82917-172.564132 0-99.308614 73.255517-172.564131 172.564131-172.564131h3.326538c6.624398-28.576677 25.092416-62.688025 40.147866-86.991823h-0.157724c15.471267-25.106755 27.788059-40.262574 50.528957-58.888316 0.157724-0.157724 0.315448-0.157724 0.473171-0.315447 1.26179-0.960681 2.365856-1.907024 3.627647-3.01109l1.892685-1.433853c0.473171-0.473171 1.104066-0.788619 1.577238-1.26179a267.011986 267.011986 0 0 1 417.121989 131.670662 191.634368 191.634368 0 0 1 41.208917-4.416265 183.948919 183.948919 0 0 1 38.714014 3.943094c4.573989 0.946343 9.162317 2.050409 13.736305 3.312199l0.788619 0.329786c2.365856 0.630895 4.573989 1.433852 6.954184 2.208133 0.788619 0.315448 1.577238 0.473171 2.365856 0.788618 0.315448 0.157724 0.473171 0.157724 0.788619 0.315448 75.305926 26.210821 122.192898 90.619469 122.192898 174.929988 0.157724 105.302117-77.514058 182.67279-182.658452 184.092304z" p-id="59709" fill="#836A40"></path></svg>