<?xml version="1.0" standalone="no"?><!DOCTYPE svg PUBLIC "-//W3C//DTD SVG 1.1//EN" "http://www.w3.org/Graphics/SVG/1.1/DTD/svg11.dtd"><svg t="1690939519176" class="icon" viewBox="0 0 1094 1024" version="1.1" xmlns="http://www.w3.org/2000/svg" p-id="60184" xmlns:xlink="http://www.w3.org/1999/xlink" width="213.671875" height="200"><path d="M32.804073 730.763636c-18.618182 0-34.909091-16.290909-32.581818-32.581818 4.654545-116.363636 81.454545-332.8 342.10909-332.8 214.109091 0 290.909091 132.654545 307.2 174.545455 2.327273 4.654545 4.654545 9.309091 4.654546 13.963636 34.909091-18.618182 88.436364-32.581818 162.909091-13.963636 6.981818 2.327273 130.327273 46.545455 130.327273 158.254545 0 18.618182-13.963636 32.581818-32.581819 32.581818-18.618182 0-32.581818-13.963636-32.581818-32.581818 0-67.490909-81.454545-97.745455-83.781818-97.745454-88.436364-23.272727-130.327273 20.945455-139.636364 32.581818-2.327273 2.327273-4.654545 4.654545-6.981818 9.309091-11.636364 11.636364-30.254545 11.636364-44.218182 2.327272-13.963636-9.309091-16.290909-27.927273-6.981818-41.890909 0-11.636364-9.309091-48.872727-41.890909-86.109091-34.909091-39.563636-97.745455-86.109091-214.109091-86.10909C81.6768 428.218182 67.713164 688.872727 67.713164 700.509091c-2.327273 16.290909-16.290909 30.254545-34.909091 30.254545z" fill="#E98F36" p-id="60185"></path><path d="M831.058618 565.527273c-4.654545 0-9.309091 0-13.963636-2.327273-16.290909-6.981818-23.272727-27.927273-16.290909-44.218182 18.618182-37.236364 20.945455-81.454545 6.981818-118.690909-13.963636-39.563636-41.890909-72.145455-81.454546-88.436364-79.127273-37.236364-172.218182-4.654545-209.454545 72.145455-6.981818 16.290909-27.927273 23.272727-44.218182 16.290909-16.290909-6.981818-23.272727-27.927273-16.290909-44.218182 53.527273-109.381818 186.181818-155.927273 297.890909-104.727272 53.527273 25.6 95.418182 69.818182 114.036364 125.672727 20.945455 55.854545 16.290909 116.363636-9.309091 169.890909-4.654545 11.636364-16.290909 18.618182-27.927273 18.618182z m-418.909091-297.890909c-4.654545 0-11.636364-2.327273-16.290909-4.654546l-76.8-41.890909c-16.290909-9.309091-20.945455-27.927273-11.636363-44.218182s30.254545-20.945455 44.218181-11.636363l76.8 41.890909c16.290909 9.309091 20.945455 27.927273 11.636364 44.218182-6.981818 11.636364-16.290909 16.290909-27.927273 16.290909z m225.745455-100.072728c-18.618182 0-32.581818-13.963636-32.581818-32.581818V32.581818c0-16.290909 13.963636-32.581818 32.581818-32.581818 18.618182 0 32.581818 13.963636 32.581818 32.581818v102.4c0 18.618182-13.963636 32.581818-32.581818 32.581818z m237.381818 79.127273c-9.309091 0-16.290909-2.327273-23.272727-9.309091-11.636364-11.636364-13.963636-32.581818 0-46.545454L928.804073 116.363636c13.963636-11.636364 34.909091-11.636364 46.545454 0 13.963636 11.636364 13.963636 32.581818 0 46.545455l-76.8 74.472727c-6.981818 4.654545-13.963636 9.309091-23.272727 9.309091z m186.181818 197.818182h-69.818182c-18.618182 0-32.581818-13.963636-32.581818-32.581818 0-18.618182 13.963636-32.581818 32.581818-32.581818h69.818182c18.618182 0 32.581818 13.963636 32.581818 32.581818 0 16.290909-13.963636 32.581818-32.581818 32.581818z m-46.545454 390.981818H32.804073c-18.618182 0-32.581818-13.963636-32.581818-32.581818 0-18.618182 13.963636-34.909091 32.581818-34.909091h982.109091c18.618182 0 32.581818 13.963636 32.581818 32.581818 0 18.618182-13.963636 34.909091-32.581818 34.909091z m-144.290909 148.945455H179.422255c-18.618182 0-32.581818-13.963636-32.581819-32.581819 0-18.618182 13.963636-32.581818 32.581819-32.581818h691.2c18.618182 0 32.581818 13.963636 32.581818 32.581818 0 18.618182-13.963636 32.581818-32.581818 32.581819z" fill="#E98F36" p-id="60186"></path></svg>