<?xml version="1.0" standalone="no"?><!DOCTYPE svg PUBLIC "-//W3C//DTD SVG 1.1//EN" "http://www.w3.org/Graphics/SVG/1.1/DTD/svg11.dtd"><svg t="1690940186022" class="icon" viewBox="0 0 1137 1024" version="1.1" xmlns="http://www.w3.org/2000/svg" p-id="67523" xmlns:xlink="http://www.w3.org/1999/xlink" width="222.0703125" height="200"><path d="M160.199111 565.361778A138.24 138.24 0 0 1 128.967111 512c-2.844444 9.614222-4.778667 19.399111-4.778667 29.468444 0 9.329778 1.706667 18.432 4.266667 27.420445 10.410667-1.479111 20.821333-2.844444 31.744-3.527111" fill="#836A40" p-id="67524"></path><path d="M821.475556 847.416889H184.32c-58.936889 0-108.032-38.456889-122.595556-90.396445-2.844444 10.069333-4.835556 20.423111-4.835555 31.402667C56.888889 855.608889 113.948444 910.222222 184.32 910.222222h637.155556c80.440889 0 145.635556-62.350222 145.635555-139.264 0-10.808889-1.592889-21.276444-4.039111-31.402666-14.961778 61.724444-72.533333 107.861333-141.653333 107.861333" fill="#836A40" p-id="67525"></path><path d="M711.111111 233.585778a235.292444 235.292444 0 0 1 165.376 402.659555 182.613333 182.613333 0 0 1 104.675556 154.965334l0.284444 10.410666a182.784 182.784 0 0 1-182.784 182.727111H185.799111A165.205333 165.205333 0 0 1 20.48 819.086222a164.408889 164.408889 0 0 1 89.656889-146.432l5.461333-2.616889-3.015111-13.653333a249.742222 249.742222 0 0 1-3.982222-31.459556l-0.568889-15.928888a252.814222 252.814222 0 0 1 380.928-217.884445 235.406222 235.406222 0 0 1 222.094222-157.582222zM360.903111 441.457778A167.480889 167.480889 0 0 0 193.422222 608.995556c0 24.689778 5.461333 48.64 15.928889 70.883555a42.666667 42.666667 0 0 1-33.393778 60.472889l-7.395555 1.308444a79.416889 79.416889 0 0 0-62.748445 77.425778c0 44.145778 35.783111 79.928889 79.928889 79.928889h612.864a97.450667 97.450667 0 1 0 0-194.844444l-5.745778-0.398223a42.666667 42.666667 0 0 1-36.920888-42.268444c0-53.816889-43.576889-97.450667-97.393778-97.450667-24.234667 0-47.104 9.216-65.251556 25.713778l-4.608 3.697778a42.666667 42.666667 0 0 1-65.536-24.917333A167.367111 167.367111 0 0 0 360.903111 441.457778z m645.916445 146.204444l5.12 3.697778 80.839111 66.56a42.666667 42.666667 0 0 1-49.095111 69.518222l-5.12-3.640889-80.839112-66.56a42.666667 42.666667 0 0 1 49.095112-69.575111zM711.111111 318.919111a150.016 150.016 0 0 0-149.390222 136.931556c9.045333 11.605333 16.952889 24.120889 23.722667 37.319111l0.455111 0.910222 1.080889-0.512a179.655111 179.655111 0 0 1 59.164444-14.392889l12.458667-0.455111c68.949333 0 128.967111 38.172444 160.085333 94.549333a149.959111 149.959111 0 0 0-107.52-254.293333z m413.013333-40.96a42.666667 42.666667 0 0 1-18.204444 53.020445l-5.12 2.56-99.84 40.732444a42.666667 42.666667 0 0 1-37.432889-76.458667l5.176889-2.56 99.84-40.732444a42.666667 42.666667 0 0 1 55.580444 23.438222zM402.033778 159.857778l5.12 3.754666 79.530666 68.664889a42.666667 42.666667 0 0 1-50.631111 68.380445l-5.12-3.754667-79.530666-68.664889a42.666667 42.666667 0 0 1 50.631111-68.380444zM728.632889 5.12a42.666667 42.666667 0 0 1 42.268444 36.864l0.398223 5.745778V143.928889a42.666667 42.666667 0 0 1-84.935112 5.802667l-0.398222-5.802667V47.786667a42.666667 42.666667 0 0 1 42.666667-42.666667z" fill="#836A40" p-id="67526"></path></svg>