<?xml version="1.0" standalone="no"?><!DOCTYPE svg PUBLIC "-//W3C//DTD SVG 1.1//EN" "http://www.w3.org/Graphics/SVG/1.1/DTD/svg11.dtd"><svg t="1690940540981" class="icon" viewBox="0 0 1024 1024" version="1.1" xmlns="http://www.w3.org/2000/svg" p-id="82814" xmlns:xlink="http://www.w3.org/1999/xlink" width="200" height="200"><path d="M870.197 1024h-716.53c-46.15 0-80.524-45.784-80.524-80.232v-744.98c0-42.127 22.965-72.699 72.772-68.822h19.016c15.358 0 30.79 11.409 30.79 30.571v133.769c0 15.286 11.703 30.571 30.718 30.571l570.986-3.95a30.206 30.206 0 0 0 30.79-30.497V156.66c0-19.161 15.36-30.57 34.449-30.79h19.089c42.2 0 69.041 34.448 69.041 68.822v749.076c0 38.251-42.273 80.232-80.597 80.232zM305.574 750.685h232.724c23.404 0 42.274-17.92 42.274-40.007 0-22.087-18.943-40.006-42.42-40.006H305.574c-23.404 0-42.42 17.919-42.42 40.006 0 22.088 19.016 40.007 42.42 40.007z m408.693-238.648H305.574c-23.404 0-42.42 17.918-42.42 40.006 0 22.087 19.016 40.006 42.42 40.006H714.34c23.478 0 42.347-17.919 42.347-40.006 0-22.16-19.016-40.006-42.42-40.006z m-1.243-271.56H306.818a30.206 30.206 0 0 1-30.791-30.499v-91.641c0-15.286 11.702-30.572 30.79-30.572h22.966c15.359 0 30.718-11.336 30.718-30.498C360.866 25.598 388.22 0.073 421.79 0.073h180.138c33.643 0 60.924 25.525 61.29 57.194 0 15.286 11.628 30.498 30.717 30.498h19.089c15.359 0 30.718 11.483 30.791 30.572v91.641c0 15.286-11.702 30.499-30.791 30.499zM514.017 57.267c-34.448 0-65.166 30.498-65.166 64.946 0 34.448 30.718 64.946 65.166 64.946 34.447 0 65.165-22.965 65.165-64.946a64.434 64.434 0 0 0-65.165-64.946z" fill="#836A40" p-id="82815"></path></svg>