<?xml version="1.0" standalone="no"?><!DOCTYPE svg PUBLIC "-//W3C//DTD SVG 1.1//EN" "http://www.w3.org/Graphics/SVG/1.1/DTD/svg11.dtd"><svg t="1690940603633" class="icon" viewBox="0 0 1024 1024" version="1.1" xmlns="http://www.w3.org/2000/svg" p-id="83013" xmlns:xlink="http://www.w3.org/1999/xlink" width="200" height="200"><path d="M826.82158203 962h-629.76269531c-40.56152345 0-70.77304686-40.23984377-70.77304688-70.51640625v-654.76757813c0-37.02568359 20.18408203-63.89560547 63.95976563-60.48808592h16.71328125c13.49824219 0 27.06152345 10.02744142 27.06152345 26.86904296v117.57041015c0 13.43496094 10.28583984 26.86904297 26.99824217 26.86904297l501.84316408-3.47167969a26.54824219 26.54824219 0 0 0 27.06152342-26.8040039V199.68945312c0-16.84072266 13.50000001-26.86816406 30.27744141-27.06152342h16.77744141c37.08984375 0 60.68056641 30.2765625 60.6805664 60.48808593v658.36757812c0 33.61904297-37.15400391 70.51640625-70.83720703 70.51640625zM330.57089844 721.78173828h204.54257813c20.56992187 0 37.15488281-15.75 37.15488281-35.16240235 0-19.41240234-16.64912109-35.16152345-37.28320313-35.16152343H330.57089844c-20.56992187 0-37.28320313 15.74912109-37.28320313 35.16152343 0 19.41328125 16.71328125 35.16240234 37.28320313 35.16240235z m359.20283203-209.74921875H330.57089844c-20.56992187 0-37.28320313 15.74824219-37.28320313 35.16152342 0 19.41240234 16.71328125 35.16152345 37.28320313 35.16152346H689.83789063c20.63496094 0 37.21904297-15.74912109 37.21904296-35.16152346 0-19.4765625-16.71328125-35.16152345-37.28320312-35.16152342z m-1.09248046-238.67578125H331.66425781a26.54824219 26.54824219 0 0 1-27.06240234-26.80576171v-80.54384766c0-13.43496094 10.28496094-26.86992187 27.06152344-26.86992188h20.18496093c13.49912109 0 26.99824219-9.96328125 26.99824219-26.80488281C379.16738281 84.49824219 403.20898437 62.06416016 432.71386719 62.06416016h158.32441406c29.56904297 0 53.54648437 22.43408203 53.86816406 50.26816406 0 13.43496094 10.21992187 26.80488281 26.99736328 26.80488281h16.77744142c13.49912109 0 26.99824219 10.09248047 27.06240233 26.86992188v80.54384764c0 13.43496094-10.28496094 26.80576172-27.06240233 26.80576173zM513.77275391 112.33232422c-30.2765625 0-57.27480469 26.80488281-57.27480469 57.08144531 0 30.2765625 26.99824219 57.08144531 57.27480469 57.08144531 30.27568359 0 57.27392578-20.18408203 57.27392578-57.08144531a56.63144531 56.63144531 0 0 0-57.27392578-57.08144531z" fill="#666666" p-id="83014"></path></svg>