<?xml version="1.0" standalone="no"?><!DOCTYPE svg PUBLIC "-//W3C//DTD SVG 1.1//EN" "http://www.w3.org/Graphics/SVG/1.1/DTD/svg11.dtd"><svg t="1691126744782" class="icon" viewBox="0 0 1024 1024" version="1.1" xmlns="http://www.w3.org/2000/svg" p-id="82840" xmlns:xlink="http://www.w3.org/1999/xlink" width="200" height="200"><path d="M442.258286 237.714286h138.24l197.046857-107.483429a18.285714 18.285714 0 0 1 17.481143 32.109714L656.859429 237.714286H914.285714a18.285714 18.285714 0 0 1 18.285715 18.285714v585.142857a18.285714 18.285714 0 0 1-18.285715 18.285714H109.714286a18.285714 18.285714 0 0 1-18.285715-18.285714V256a18.285714 18.285714 0 0 1 18.285715-18.285714h230.656L194.596571 181.650286a18.285714 18.285714 0 1 1 13.092572-34.157715L442.258286 237.714286z m-2.998857 36.571428H128v548.571429h768v-548.571429H439.259429zM219.428571 348.708571h438.857143c9.398857 0 17.005714 7.606857 17.005715 17.005715v365.714285a17.005714 17.005714 0 0 1-17.005715 17.005715H219.428571A17.005714 17.005714 0 0 1 202.422857 731.428571V365.714286c0-9.398857 7.606857-17.005714 17.005714-17.005715z m17.005715 34.011429v331.702857h404.845714v-331.702857H236.434286zM731.428571 676.571429a18.285714 18.285714 0 1 1 0-36.571429h73.142858a18.285714 18.285714 0 1 1 0 36.571429h-73.142858z m0-73.142858a18.285714 18.285714 0 1 1 0-36.571428h73.142858a18.285714 18.285714 0 1 1 0 36.571428h-73.142858z m0 146.285715a18.285714 18.285714 0 1 1 0-36.571429h73.142858a18.285714 18.285714 0 1 1 0 36.571429h-73.142858z m-12.946285-261.339429a18.285714 18.285714 0 1 1 25.892571-25.892571 18.285714 18.285714 0 0 1-25.892571 25.892571z m73.142857 0a18.285714 18.285714 0 1 1 25.892571-25.892571 18.285714 18.285714 0 0 1-25.892571 25.892571z m-73.142857-73.142857a18.285714 18.285714 0 1 1 25.892571-25.892571 18.285714 18.285714 0 0 1-25.892571 25.892571z m73.142857 0a18.285714 18.285714 0 1 1 25.892571-25.892571 18.285714 18.285714 0 0 1-25.892571 25.892571z" fill="#358EFF" p-id="82841"></path></svg>