<?xml version="1.0" standalone="no"?><!DOCTYPE svg PUBLIC "-//W3C//DTD SVG 1.1//EN" "http://www.w3.org/Graphics/SVG/1.1/DTD/svg11.dtd"><svg t="1691120638747" class="icon" viewBox="0 0 1024 1024" version="1.1" xmlns="http://www.w3.org/2000/svg" p-id="74132" xmlns:xlink="http://www.w3.org/1999/xlink" width="200" height="200"><path d="M693.248 378.88H279.04c-8.192 0-14.848-7.168-14.848-15.36s6.656-15.36 14.848-15.36h414.208c8.192 0 14.848 7.168 14.848 15.36s-6.656 15.36-14.848 15.36zM424.448 911.36c-13.312 0-24.576-9.216-26.624-22.528l-10.752-60.416c-1.024-7.168 0.512-14.336 4.608-19.968 4.096-6.144 10.24-9.728 17.408-11.264l96.256-16.896c14.848-2.56 28.672 7.68 31.232 22.016l10.752 60.416c2.56 14.848-7.168 28.672-22.016 31.232L429.568 911.36h-5.12z m-7.68-84.992l9.728 55.296 91.648-16.384-9.728-55.296-91.648 16.384z" p-id="74133"></path><path d="M409.6 826.88c-12.8 0-24.064-9.216-26.624-22.016l-143.36-602.624v-1.024c-2.56-14.848 7.168-28.672 22.016-31.232l168.96-29.696c14.848-2.56 28.672 7.68 31.232 22.016v1.024l71.168 615.424c1.024 6.656-0.512 13.824-4.608 19.456-4.096 6.144-10.24 9.728-17.408 11.264L414.72 826.368c-2.048 0.512-3.584 0.512-5.12 0.512zM269.312 199.168l142.336 598.016 91.648-16.384L432.64 170.496l-163.328 28.672z" p-id="74134"></path><path d="M264.192 245.248c-7.168 0-13.312-5.12-14.336-12.288-1.536-8.192 4.096-15.872 11.776-16.896L445.44 183.296c8.192-1.536 15.872 4.096 16.896 11.776 1.536 8.192-4.096 15.872-11.776 16.896l-183.808 32.256c-0.512 0.512-1.536 1.024-2.56 1.024z m141.312 346.112c-13.312 0-24.576-9.216-26.624-22.528l-46.592-265.216c-2.56-14.848 7.168-28.672 22.016-31.232l24.064-4.096c14.848-2.56 28.672 7.68 31.232 22.016l46.592 265.216c1.024 7.168-0.512 14.336-4.608 19.968-4.096 6.144-10.24 9.728-17.408 11.264l-24.064 4.096c-1.536 0.512-3.072 0.512-4.608 0.512z m-44.032-290.304l46.08 260.608 18.944-3.584-46.08-260.608-18.944 3.584zM430.08 732.16c-13.312 0-24.576-9.216-26.624-22.528l-8.704-48.128c-1.024-7.168 0.512-14.336 4.608-19.968 4.096-6.144 10.24-9.728 17.408-11.264l24.064-4.096c14.848-2.56 28.672 7.68 31.232 22.016L481.28 696.32c2.56 14.848-7.168 28.672-22.016 31.232l-24.064 4.096c-1.536 0.512-3.072 0.512-5.12 0.512z m-5.12-73.216l7.68 43.008 18.944-3.584-7.68-43.008c0 0.512-18.944 3.584-18.944 3.584z m115.712 256.512c-2.048 0-4.096-0.512-6.144-1.024l-11.776-3.072c-7.68-2.048-13.824-7.68-16.896-15.872-2.56-6.656-3.072-13.824-1.536-19.968l114.688-427.008-9.216-100.864c-0.512-4.096 0-7.68 1.536-11.776 0-1.024 0.512-1.536 0.512-2.56l55.296-206.848c3.584-13.312 16.384-20.48 32.256-16.384l11.776 3.072c6.144 1.536 11.264 4.608 14.848 8.704 5.12 5.632 7.168 13.824 5.12 21.504l-54.784 204.8 9.216 100.864c0.512 3.584 0 6.656-1.024 10.24v1.024l-115.712 432.128c-3.072 11.264-14.336 23.04-28.16 23.04z m-7.168-31.744l6.656 1.536 0.512-0.512 115.712-431.104c0-0.512 0.512-1.536 0.512-2.048l-9.728-102.912c0-2.048 0-4.096 0.512-6.144L701.44 141.312l-6.656-2.048-54.272 201.728c0 1.536-0.512 3.072-1.024 4.608l9.728 102.4c0 1.536 0 3.584-0.512 5.12l-115.2 429.568v1.024z" p-id="74135"></path><path d="M797.696 185.856c-1.024 0-2.56 0-3.584-0.512l-82.944-22.016c-7.68-2.048-12.8-10.24-10.24-17.92 2.048-7.68 10.24-12.8 17.92-10.24l82.944 22.016c7.68 2.048 12.8 10.24 10.24 17.92-2.048 6.144-8.192 10.752-14.336 10.752z m-9.728 35.328c-1.024 0-2.56 0-3.584-0.512L701.44 198.656c-7.68-2.048-12.8-10.24-10.24-17.92 2.048-7.68 10.24-12.8 17.92-10.24l82.944 22.016c7.68 2.048 12.8 10.24 10.24 17.92-1.536 6.144-7.68 10.752-14.336 10.752z m-9.216 35.328c-1.024 0-2.56 0-3.584-0.512l-82.944-22.016c-7.68-2.048-12.8-10.24-10.24-17.92 2.048-7.68 10.24-12.8 17.92-10.24l82.944 22.016c7.68 2.048 12.8 10.24 10.24 17.92-2.048 6.656-8.192 10.752-14.336 10.752z m-9.728 35.84c-1.024 0-2.56 0-3.584-0.512l-82.944-22.016c-7.68-2.048-12.8-10.24-10.24-17.92 2.048-7.68 10.24-12.8 17.92-10.24l82.944 22.016c7.68 2.048 12.8 10.24 10.24 17.92-2.048 6.144-7.68 10.752-14.336 10.752z m-9.728 35.328c-1.024 0-2.56 0-3.584-0.512l-82.944-22.016c-7.68-2.048-12.8-10.24-10.24-17.92 2.048-7.68 10.24-12.8 17.92-10.24l82.944 22.016c7.68 2.048 12.8 10.24 10.24 17.92-1.536 6.144-7.68 10.752-14.336 10.752z m-9.216 35.328c-1.024 0-2.56 0-3.584-0.512l-82.944-22.016c-7.68-2.048-12.8-10.24-10.24-17.92 2.048-7.68 10.24-12.8 17.92-10.24l82.944 22.016c7.68 2.048 12.8 10.24 10.24 17.92-2.048 6.144-7.68 10.752-14.336 10.752z" p-id="74136"></path><path d="M645.632 930.304H327.168c-34.816 0-62.976-29.184-62.976-66.048V360.448c0-8.192 6.144-14.848 14.336-14.848s14.336 6.656 14.336 14.848v503.808c0 19.968 15.872 36.864 33.792 36.864H645.12c17.92 0 33.792-17.408 33.792-36.864V360.448c0-8.192 6.144-14.848 14.336-14.848s14.336 6.656 14.336 14.848v503.808c0.512 36.864-27.648 66.048-61.952 66.048z" p-id="74137"></path></svg>