<?xml version="1.0" standalone="no"?><!DOCTYPE svg PUBLIC "-//W3C//DTD SVG 1.1//EN" "http://www.w3.org/Graphics/SVG/1.1/DTD/svg11.dtd"><svg t="1691120697451" class="icon" viewBox="0 0 1024 1024" version="1.1" xmlns="http://www.w3.org/2000/svg" p-id="76504" xmlns:xlink="http://www.w3.org/1999/xlink" width="200" height="200"><path d="M304.166267 0a111.910472 111.910472 0 0 1 111.526779 102.701839l0.383693 9.208633v47.96163a63.948841 63.948841 0 0 1 59.984012 51.159073l1.023182 7.290168 66.76259 769.944045a31.97442 31.97442 0 0 1-26.346923 34.276578L512 1022.989608H96.332534a31.97442 31.97442 0 0 1-31.846523-29.22462v-5.4996l66.76259-769.944045a63.948841 63.948841 0 0 1 56.147082-58.001599L192.255795 160V111.910472A111.910472 111.910472 0 0 1 294.957634 0.383693L304.166267 0z m559.552358 0a95.923261 95.923261 0 0 1 95.47562 86.714628L959.641886 95.923261v292.885692a159.872102 159.872102 0 0 1-47.322142 113.509192l-8.505196 7.865708-22.57394 19.376499a95.923261 95.923261 0 0 0-33.061551 63.565148l-0.447642 9.272582v332.66187a87.929656 87.929656 0 0 1-175.47562 8.505196l-0.383693-8.505196V538.449241a159.872102 159.872102 0 0 1 47.322143-113.509193l8.505195-7.865707 22.573941-19.376499a95.923261 95.923261 0 0 0 13.301359-13.940848L681.016787 383.693046c-53.972822 0-99.760192-37.410072-104.620304-87.034373L575.948841 287.769784v-191.846523C575.948841 44.956035 618.666667 4.668265 671.552358 0.383693L681.016787 0H863.718625zM465.956835 831.334932H142.311751l-11.06315 127.705835h345.899281L466.020783 831.334932z m398.081534-767.386091h-16.306954v260.911271a159.872102 159.872102 0 0 1-47.322142 113.509193l-8.505196 7.865707-22.573941 19.376499a95.923261 95.923261 0 0 0-33.061551 63.565148l-0.447642 9.272582v396.610711a23.980815 23.980815 0 0 0 47.45004 4.860112l0.511591-4.860112V602.398082a159.872102 159.872102 0 0 1 47.322142-113.509193l8.505196-7.865708 22.573941-19.376498a95.923261 95.923261 0 0 0 33.061551-63.565148L895.693046 388.808953V95.923261a31.97442 31.97442 0 0 0-26.219025-31.462829L864.038369 63.948841zM430.017586 415.667466H178.314948L147.811351 767.386091h312.645883l-30.439648-351.718625z m-16.626699-191.846523H194.941647l-11.06315 127.897682H424.390088l-11.06315-127.897682zM783.782574 63.948841h-102.765787c-21.231015 0-37.53797 12.406075-40.607514 27.05036L639.897682 95.923261v191.846523c0 14.964029 14.196643 28.904876 34.21263 31.526779l6.906475 0.447642h102.765787V63.948841z m-479.616307 0a47.961631 47.961631 0 0 0-47.513989 41.438849L256.204636 111.910472v47.96163h95.923262v-47.96163a47.961631 47.961631 0 0 0-35.171863-46.235012l-6.266986-1.278977L304.166267 63.948841z" fill="#333333" p-id="76505"></path></svg>