<?xml version="1.0" standalone="no"?><!DOCTYPE svg PUBLIC "-//W3C//DTD SVG 1.1//EN" "http://www.w3.org/Graphics/SVG/1.1/DTD/svg11.dtd"><svg t="1691120582528" class="icon" viewBox="0 0 1024 1024" version="1.1" xmlns="http://www.w3.org/2000/svg" p-id="73105" xmlns:xlink="http://www.w3.org/1999/xlink" width="200" height="200"><path d="M192 128a64 64 0 0 0-64 64v640a64 64 0 0 0 128 0V192a64 64 0 0 0-64-64z m618.666667 288.256V362.666667a21.333333 21.333333 0 0 0-21.333334-21.333334h-85.333333a21.333333 21.333333 0 0 0-21.333333 21.333334v53.589333A191.68 191.68 0 0 1 746.666667 405.333333c22.442667 0 43.989333 3.84 64 10.922667z m42.666666 21.418667A191.808 191.808 0 0 1 938.666667 597.333333v298.666667a42.666667 42.666667 0 0 1-42.666667 42.666667H597.333333a42.666667 42.666667 0 0 1-42.666666-42.666667V597.333333c0-66.56 33.877333-125.226667 85.333333-159.658666V341.333333a42.666667 42.666667 0 0 1 42.666667-42.666666h128a42.666667 42.666667 0 0 1 42.666666 42.666666v96.341334zM426.666667 490.666667h-128v64h128v-64z m0-42.666667v-64h-128v64h128z m0-106.666667v-64h-128v64h128z m0-106.666666V170.666667h-130.133334c1.408 6.890667 2.133333 14.037333 2.133334 21.333333v42.666667h128z m42.666666-64v426.666666h-170.666666v234.666667a106.666667 106.666667 0 0 1-213.333334 0V192a106.666667 106.666667 0 0 1 192-64h192v42.666667z m426.666667 725.333333v-85.333333h-170.666667a21.333333 21.333333 0 0 1 0-42.666667h170.666667v-42.666667h-106.666667a21.333333 21.333333 0 0 1 0-42.666666h106.666667v-85.333334a149.333333 149.333333 0 0 0-298.666667 0v298.666667h298.666667z" fill="#3D3D3D" p-id="73106"></path></svg>