<?xml version="1.0" standalone="no"?><!DOCTYPE svg PUBLIC "-//W3C//DTD SVG 1.1//EN" "http://www.w3.org/Graphics/SVG/1.1/DTD/svg11.dtd"><svg t="1691137910345" class="icon" viewBox="0 0 1024 1024" version="1.1" xmlns="http://www.w3.org/2000/svg" p-id="72127" xmlns:xlink="http://www.w3.org/1999/xlink" width="200" height="200"><path d="M748.13 716.49c-10.9-1.79-21.19 5.6-22.98 16.5s5.6 21.19 16.5 22.97c52.21 8.57 61.61 19.75 62.97 21.9 0.32 0.51 0.68 1.09-0.03 3.52-1.27 4.33-18.3 19.56-77.82 32.22-53.41 11.37-126.53 17.63-205.89 17.63-74.28 0-145.33-6.12-200.06-17.24-60.15-12.22-80.19-26.24-83.24-31.05-0.29-2.18 0.17-3.04 0.84-3.99 2.23-3.15 13.48-14.11 64.5-22.64 10.89-1.82 18.25-12.13 16.43-23.02-1.82-10.89-12.13-18.25-23.02-16.43-49.39 8.26-77.32 20.28-90.56 38.99-7.11 10.04-9.7 22.02-7.49 34.63 2.68 15.28 14.86 28.03 37.25 38.96 17.11 8.35 40.37 15.77 69.15 22.04 58.46 12.74 135.24 19.76 216.2 19.76 83.26 0 157.34-6.4 214.22-18.5 64.75-13.78 100.04-33.43 107.87-60.06 4.79-16.31 0.21-28.63-4.48-36.09-12.25-19.49-40.12-31.85-90.36-40.1z" p-id="72128"></path><path d="M870.89 443.84c-22.58-22.17-61.16-21.46-98.47-20.77-0.18 0-0.35 0.01-0.53 0.01-9.04-37.97-43.23-66.31-83.93-66.31H338.54c-47.58 0-86.29 38.71-86.29 86.29v69.18c0 69.72 27.15 135.26 76.44 184.55s114.84 76.44 184.55 76.44h30.88c61.47 0 119.26-23.94 162.72-67.4a232.132 232.132 0 0 0 29.94-36.76c57.21-15.78 96.75-39.84 120.75-73.48C877.92 567.05 887 533.06 887 485.38c0-17.07-5.42-31.05-16.11-41.54zM544.13 733.23h-30.88c-59.03 0-114.53-22.99-156.27-64.73-41.74-41.74-64.73-97.24-64.73-156.27v-69.18c0-25.53 20.77-46.29 46.29-46.29h349.41c25.53 0 46.29 20.77 46.29 46.29V543.1c0.01 104.85-85.28 190.13-190.11 190.13z m280.86-160.88c-13.48 18.89-34.36 34.13-63.32 46.14 8.27-23.93 12.59-49.32 12.59-75.38v-80.08c26.14-0.48 58.16-0.92 68.62 9.34 1.77 1.74 4.13 4.98 4.13 13-0.01 38.83-6.8 65.65-22.02 86.98zM358.19 316.05c5.12 0 10.24-1.95 14.14-5.86l24.8-24.8c20.54-20.54 21.36-53.5 1.86-75.03a19.343 19.343 0 0 1-0.09-25.92l22.18-24.86c7.35-8.24 6.63-20.88-1.61-28.24-8.24-7.35-20.88-6.63-28.24 1.61l-22.18 24.86c-20.26 22.7-20.14 56.84 0.29 79.39 5.17 5.71 4.95 14.45-0.49 19.9l-24.8 24.8c-7.81 7.81-7.81 20.47 0 28.28 3.9 3.91 9.02 5.87 14.14 5.87zM497.11 316.05c5.12 0 10.24-1.95 14.14-5.86l24.8-24.8c20.54-20.54 21.36-53.5 1.86-75.03a19.343 19.343 0 0 1-0.09-25.92L560 159.58c7.35-8.24 6.63-20.88-1.61-28.24-8.24-7.35-20.88-6.64-28.24 1.61l-22.18 24.86c-20.26 22.7-20.14 56.84 0.29 79.39 5.17 5.71 4.95 14.45-0.49 19.9l-24.8 24.8c-7.81 7.81-7.81 20.47 0 28.28 3.9 3.91 9.02 5.87 14.14 5.87zM636.03 316.05c5.12 0 10.24-1.95 14.14-5.86l24.8-24.8c20.54-20.54 21.36-53.5 1.86-75.03a19.343 19.343 0 0 1-0.09-25.92l22.18-24.86c7.35-8.24 6.63-20.88-1.61-28.24-8.24-7.35-20.88-6.64-28.24 1.61l-22.18 24.86c-20.26 22.7-20.14 56.84 0.29 79.39 5.17 5.71 4.95 14.45-0.49 19.9l-24.8 24.8c-7.81 7.81-7.81 20.47 0 28.28 3.9 3.91 9.02 5.87 14.14 5.87z" p-id="72129"></path></svg>